<svg width="673pt" height="523pt" viewBox="0 0 673 523" xmlns="http://www.w3.org/2000/svg"><g fill="#fff"><path d="M444.19 110.26c1.58-1.64 3.76-2.48 5.78-3.44.27 2.12.53 4.26.54 6.41l-.01.78c-1.76 1.08-3.52 2.17-5.31 3.18l-1.41.06c.01-2.31-.62-4.82.41-6.99zM495.87 305.27c-.66-4.51-.53-10.51 4.22-12.77-.02 4.26.47 9.2-2.91 12.44l-1.31.33z"/></g><g fill="#c2b9fa"><path d="M453.89 9.87c3.54-.15 6.37 2.15 9.32 3.75-.77.14-2.3.41-3.06.54-.55 7.05.84 14.26-.75 21.19-2.09-1.11-4.15-2.25-6.18-3.43 1.39-7.25.25-14.71.67-22.05zM431.35 61.93l.86.3c2.18 1.37 4.29 2.85 6.43 4.29.54 21.88-.35 43.8.45 65.67-2.84-1.71-7.74-2.91-7.04-7.17.04-19.35-.03-38.7.04-58.04.05-1.72-.31-3.4-.74-5.05zM550.65 99.59c4.15-3.2 8.58-6.09 13.46-8.04 6.44 1.1 11.45 5.75 17.25 8.45-5.52 1.78-10.19 5.27-14.74 8.75-5.21-3.25-10.66-6.09-15.97-9.16zM451.15 106.06a47.85 47.85 0 0 1 5.71-3.23c.28 4.98.14 9.97.11 14.95l-.38-.24c-1.99-1.24-4.03-2.41-6.09-3.53l.01-.78c.07-2.4.4-4.79.64-7.17zM583.51 106.79c6.79-1.78 14.61 2.65 16.19 9.57-5.48-3.01-11.33-5.6-16.19-9.57z"/><path d="M555.44 107.34c3.94 2.04 7.72 4.38 11.58 6.56 4.84-1.1 8.35-5.3 13.33-6.26 2.34 1.35 4.71 2.67 7.07 4-6.38-.21-12.73 2.02-17.54 6.22-1.34 1.34-.72 3.48-.91 5.17-3.93-2.03-7.73-4.3-11.62-6.41-1.84-1.1-4.41-2.02-4.34-4.6-.62-2 1.4-3.3 2.43-4.68zM549.85 126.98c1.66-1.23 3.37-2.4 5.11-3.54 5.56 2.69 10.77 6.04 16.31 8.79-1.91 1.09-3.74 2.31-5.58 3.5-2.18-1-4.34-2.01-6.45-3.15-3.2-1.76-6.31-3.65-9.39-5.6zM513.02 147.79c4.91-9.88 12.52-19.26 23.26-22.95 4.85 3.33 10.19 5.83 15.11 9.05-10.17 4.1-17.68 12.94-22.33 22.64-5.42-2.77-10.7-5.81-16.04-8.74zM218.51 223.47c53.27-30.58 106.46-61.29 159.72-91.88.14 5.77-.26 11.56.19 17.32 1.07 6.51 7.73 9.99 13.69 10.94.08 29.38-.1 58.77-.05 88.15.22 4.73-2.5 9.31-6.63 11.55-56.26 32.38-112.51 64.78-168.78 97.16-1.54.8-3.42 1.81-5.13.86-1.82-1.23-1.47-3.68-1.6-5.57.06-8.69-.05-17.38.09-26.07.84-1.21 1.7-2.45 2.12-3.87.1-6.34-2.39-12.65-1.15-18.98 1.5-5.04 7.92-3.8 11.14-6.98 3.39-3.23 5.76-8.21 4.52-12.91-.46-2.06-2.82-2.81-4.67-2.37-4.53.82-6.12 7.06-11.1 6.53-.31-6.96 1.31-13.8 1.29-20.75-5.44.43-10.03 3.68-15.11 5.38-3.77 1.01-5.88 5.53-4 9.01 2.08 4.46-.24 9.4-3.24 12.8-1.73 1.77-4.06 3.58-6.69 3.17-1.77-.19-2.48-1.99-3.02-3.43 4.58-2.83 8.46-7.98 7.73-13.61-.26-2.32-2.11-4.58-1.02-6.93 1.63-4.78 7.28-5.59 11.19-7.77 1.5-.67 3-1.33 4.5-2-.19-9.82-.37-19.67-.03-29.49.31 9.61-.06 19.22.3 28.83 2.52.78 4.94 1.86 7.18 3.26.05-10.29-.13-20.59.06-30.87.11-5.2 4.01-9.37 8.5-11.48m23.34 5.36c.06 3.87-.01 7.75.1 11.62l.99-.55c-1.46 1.65-.9 4.05-1.07 6.06.21 25.26-.25 50.54.24 75.79 37.54-21.69 75.13-43.32 112.71-64.95 2.2-1.48 6.02-2.33 5.37-5.76-.09-26.16.19-52.33-.14-78.49.24-4 .14-8 .11-12-39.42 22.79-78.98 45.35-118.31 68.28zM496.17 181.11c2.36-7.55 6.21-15.02 12.78-19.73 5.26 2.93 10.44 5.99 15.82 8.7-6.31 5.31-11.11 12.58-12.51 20.8-.59-2.6-3.31-3.52-5.33-4.77-3.52-1.8-6.77-4.34-10.76-5z"/><path d="M282.81 237.86c14.23-8.09 28.35-16.38 42.6-24.44l.3 3.15c-14.93 8.58-29.73 17.43-44.85 25.66-.75-1.9.15-3.61 1.95-4.37zM282.84 255.82c15.38-8.9 30.79-17.73 46.18-26.62.35 1.66.6 3.62-1.4 4.3-15.68 8.74-30.96 18.23-46.82 26.65-.73-1.92.32-3.52 2.04-4.33zM282.2 275.25c12.23-7.09 24.53-14.1 36.78-21.18 0 1.6.36 3.7-1.56 4.36-12.27 6.85-24.24 14.29-36.69 20.81-.07-1.48-.25-3.36 1.47-3.99zM492.21 267.22c6.65-3.55 13.4-7.21 20.76-9.02 4.24-1.16 7.85 1.74 11.42 3.51-6.39.2-12.13 3.24-17.78 5.9-7.96 4.04-15.89 8.41-22.63 14.33-7.62 6.68-11.25 17.06-11.02 27.03.18 10.19-.83 20.97 3.83 30.41-2.41-1.3-4.93-2.42-7.14-4.02-2.29-1.76-3.05-4.73-3.62-7.41-1.41-7.66-.94-15.49-1.08-23.24.89-7.81 2.29-16.03 7.34-22.34 5.12-6.77 12.76-10.92 19.92-15.15z"/><path d="M515.93 271.1c2.49-.52 5.87-.67 6.51 2.5 1.34 6.67.73 13.58.57 20.34.04 3.36-1.34 7.03-4.87 7.98-.73-1.19-1.25-2.49-1.13-3.91-.35-7.65.75-15.41-.81-22.97-.16-1.31-.26-2.63-.27-3.94zM508.64 274.57c2.37-1.34 4.53.86 6.54 1.88-3.06 1.37-5.77 3.31-8.14 5.67-2.07 1.11-4.59 1.07-6.74 2.02-6.03 2.71-11.25 7.9-12.8 14.47-1.7 7.7-2.62 16.43 1.89 23.4-3.24-1.76-6.81-3.14-9.38-5.89.13-6.6.2-13.26 1.52-19.74 1.03-5.11 4.99-8.9 9.15-11.7 5.72-3.79 11.7-7.26 17.96-10.11zM161.99 285.91c3.89-2.77 7.76-5.6 11.99-7.85 2.13 1.14 4.23 2.34 6.37 3.47-4.27 2.63-8.55 5.28-12.52 8.35-2.01 1.64-4.11 3.55-4.77 6.16.01 6.44 2.07 13.02.38 19.38-1.61 4.46-7.39 2.81-10.28 5.78-4.16 3.42-5.84 8.9-5.22 14.16-2.25-1.29-5.52-2.25-5.88-5.25-.5-4.29 1.54-8.54 4.48-11.56 3.12-3.73 10.01-2.16 11.54-7.59.75-5.98-.67-12-.81-17.99-.05-3.11 2.41-5.37 4.72-7.06z"/><path d="M500.09 292.5c1.92-1.02 4.84-3.62 6.73-1.27 1.53 3.71.98 7.88.57 11.77-.07 5.57-6.17 9.7-11.35 9.08-.16-1.72-.33-3.43-.5-5.13.41-.5 1.23-1.51 1.64-2.01 3.38-3.24 2.89-8.18 2.91-12.44zM379.75 297.13c3.36-2.09 6.66-4.35 10.32-5.89 2.77-.9 5.28.91 7.56 2.2 2.18 1.34 4.74 2.31 6.2 4.54-3 2.49-6.47 4.33-9.93 6.09-3.36 1.56-6.45-1.16-9.28-2.64-1.76-1.24-4.46-1.87-4.87-4.3zM370.36 302.45c5.01-1.7 9.17 2.93 13.32 5.02 2.21 1.65-.99 3.18-2.3 3.97-3.26 1.56-6.41 4.87-10.31 3.77-3.07-1.2-5.81-3.09-8.65-4.74-1.13-.36-2.16-2.08-.85-2.87 2.78-1.95 5.78-3.59 8.79-5.15zM408.33 302.46c4.26-1.74 7.85 2.04 11.42 3.76 1.11.73 3.92 1.99 2.11 3.57-3.71 2.19-7.36 5.47-11.82 5.67-3.92-1.18-7.39-3.62-10.81-5.83-.06-.38-.18-1.14-.25-1.52 2.84-2.29 6.15-3.93 9.35-5.65zM509.22 311.74c3.31.4 6.69.01 9.58-1.77.68.32 2.04.96 2.72 1.27-2.21 1.52-4.2 3.31-6 5.28-3.78 4.17-9.29 5.96-13.81 9.14-5.08 3.14-10.61 6.7-16.81 6.4-2.49.04-3.06-2.83-3.88-4.62 3.52-1.11 6.85-2.69 10.04-4.55 7.48-.55 13.71-5.41 18.16-11.15zM351.37 313.4c5-1.67 9.16 2.91 13.31 5.02 2.2 1.65-.93 3.17-2.26 3.95-3.3 1.55-6.46 4.88-10.4 3.78-3.43-1.45-6.62-3.46-9.72-5.51-.09-.4-.28-1.2-.37-1.6 2.93-2.21 6.2-3.94 9.44-5.64zM379.7 319.05c3.34-2.08 6.64-4.29 10.26-5.88 2.53-.86 4.94.54 7.03 1.82 2.35 1.51 5.2 2.48 6.84 4.89-2.98 2.52-6.47 4.33-9.91 6.1-3.35 1.46-6.46-1.09-9.25-2.61-1.82-1.22-4.42-1.91-4.97-4.32zM427.31 313.43c4.29-1.79 7.91 2.1 11.51 3.81 1.12.69 3.8 1.99 2.05 3.51-3.45 2.14-6.87 4.82-10.89 5.67-4.41-.49-8.02-3.6-11.76-5.77-.08-.4-.23-1.19-.31-1.59 2.91-2.21 6.17-3.93 9.4-5.63zM190.24 321.82c1.75.14 4.03.26 4.54 2.37.78 3.28-.29 6.63-.73 9.89-1.82-.94-3.73-1.78-5.29-3.12-.97-1.97.32-4.17.65-6.16.26-1 .54-1.99.83-2.98zM364.63 327.54c3.28-1.67 6.83-5.04 10.74-3.03 3.19 2.03 7.24 3.21 9.43 6.46-3.05 2.33-6.4 4.26-9.85 5.95-3.1 1.39-6.06-.75-8.65-2.22-1.83-1.19-4-2-5.42-3.7.15-1.99 2.39-2.47 3.75-3.46zM398.68 330.03c4.28-2.22 8.23-6.47 13.35-6.01 3.77 1.88 8.12 3.51 10.77 6.92-3.05 2.39-6.47 4.25-9.9 6-3.37 1.42-6.44-1.09-9.24-2.61-1.82-1.23-4.44-1.88-4.98-4.3zM317.08 333.28c4.06-2.25 8.03-6.23 12.96-5.68 3.73 1.79 7.54 3.68 10.64 6.47-2.85 3.16-7 4.87-10.75 6.76-4.95.48-8.94-3.58-13.02-5.85.04-.43.13-1.28.17-1.7zM157.98 333.76c1.52-1.31 3.76-5.14 5.77-2.61.98 6.29-.64 12.58-.75 18.87a78.016 78.016 0 0 1-5.73-3.36c.12-4.31.7-8.59.71-12.9zM389.24 335.38c1.85-.91 4.1-.59 5.83.46 2.8 1.64 5.8 3.04 8.32 5.12.35 1.88-1.88 2.5-3.05 3.38-3.44 1.75-7.05 5.26-11.17 3.44-3.16-1.76-6.53-3.31-9.29-5.67l.13-1.05c2.64-2.45 6.09-3.92 9.23-5.68zM306.28 339.33c3.79-2.53 7.65.7 10.92 2.5 1.41 1 3.45 1.52 4.15 3.25-.47 1.8-2.61 2.27-3.96 3.27-3.26 1.6-6.81 5.08-10.62 2.86-3-1.97-7.12-3.07-9.07-6.12 1.99-2.83 5.74-3.89 8.58-5.76zM344.26 339.35c1.93-1.19 4.48-1.31 6.42-.06 2.78 1.57 5.65 3.02 8.22 4.92 1.42 1.91-1.68 2.9-2.87 3.78-3.21 1.43-6.21 4.71-10.01 3.75-3.55-1.59-6.96-3.58-10.13-5.83.05-.42.16-1.27.21-1.69 2.57-1.86 5.39-3.34 8.16-4.87zM282.13 353.18c3.31-1.62 6.73-5.03 10.68-3.37 3.4 1.88 7.1 3.48 9.88 6.27-2.39 2.6-5.76 3.93-8.73 5.73-1.81 1.2-4.25 1.46-6.17.36-3.01-1.62-6.05-3.24-8.82-5.25-.85-2.1 1.91-2.78 3.16-3.74zM317.78 354.66c3.87-2 7.54-5.79 12.18-5.16 3.78 1.75 7.6 3.71 10.71 6.52-2.52 2.87-6.22 4.24-9.44 6.16-4.07 2.25-7.8-1.6-11.26-3.26-1.54-.78-4.78-2.6-2.19-4.26zM358.17 353.17c3.31-1.6 6.74-5.08 10.67-3.32 3.4 1.82 6.96 3.51 9.83 6.14-2.08 2.61-5.34 3.74-8.08 5.48-1.98 1.32-4.64 2.04-6.8.72-2.98-1.64-6.05-3.18-8.77-5.23-1.04-2.07 1.91-2.84 3.15-3.79zM269.45 360.67c4.9-1.35 8.86 2.97 12.91 5.03 2.51 1.66-.91 3.41-2.34 4.2-3.31 1.52-6.59 5.03-10.52 3.53-3.28-1.6-6.49-3.41-9.46-5.53-.97-1.5.88-2.42 1.9-3.05 2.49-1.43 4.9-3.01 7.51-4.18zM306.93 360.89c3.72-1.87 7.17 1.21 10.29 2.86 1.38 1.02 3.51 1.52 4.09 3.3-.69 1.95-3.08 2.48-4.63 3.62-2.84 1.42-5.85 4.21-9.24 2.76-3.51-1.87-7.28-3.54-10.1-6.4 2.7-2.73 6.3-4.26 9.59-6.14zM343.6 361.58c2.08-1.38 4.89-1.8 7.08-.38 2.77 1.6 5.71 3 8.23 4.99 1.23 1.28-.75 2.4-1.67 2.98-14.82 8.51-29.61 17.1-44.44 25.59-1.98 1.25-4.6 1.26-6.58.01-3.05-1.78-6.39-3.24-8.9-5.78.93-.94 1.89-1.89 3.07-2.52 14.43-8.25 28.82-16.58 43.21-24.89zM241.03 377.1c4.05-2.24 8-6.28 12.93-5.68 3.78 1.75 7.71 3.64 10.72 6.58-3.06 2.94-6.98 4.86-10.79 6.61-4.91.49-8.91-3.51-12.92-5.82.01-.43.05-1.27.06-1.69zM288.45 371.62c4.9-1.39 8.85 3.02 12.93 5.02 2.24 1.4-.43 3.25-1.84 3.9-3.34 1.55-6.46 4.86-10.42 4.07-3.61-1.52-6.99-3.61-10.21-5.83l.16-1.68c2.94-2.11 6.13-3.88 9.38-5.48zM269.39 382.6c1.76-.69 3.81-.43 5.42.55 2.76 1.58 5.65 3.01 8.19 4.96 1.04 1.98-1.84 2.77-3.02 3.7-3.3 1.55-6.56 4.99-10.5 3.54-3.27-1.63-6.51-3.39-9.46-5.55-1.04-1.43.78-2.36 1.76-2.96 2.51-1.45 4.96-3.04 7.61-4.24zM286.57 394.45c2.1-1.43 4.99-1.76 7.19-.36 2.79 1.6 5.66 3.09 8.28 4.96.84 2.14-1.94 2.82-3.21 3.8-3.25 1.56-6.48 4.88-10.36 3.45-3.52-1.81-7.17-3.59-10.12-6.27 2.1-2.66 5.43-3.81 8.22-5.58z"/></g><g fill="#e3e1ff"><path d="M460.15 14.16c.76-.13 2.29-.4 3.06-.54 3.37 2.05 6.46 4.98 7.2 9.04 2.18 10.25-2.03 20.6-7.62 29.04-1.76 2.44-.94 5.59-1.07 8.38.03 18.99.3 37.98.16 56.97-.25 5.1-5.26 7.68-9.21 9.79-4.43 2.19-8.42 5.73-13.52 6.14l-.06-.79c-.8-21.87.09-43.79-.45-65.67-2.14-1.44-4.25-2.92-6.43-4.29-3.32-5.89-3.13-13.03-1.43-19.39 1.76-6.31 4.82-12.28 9.03-17.31 1.15 5.31.41 10.76.57 16.14 1.23.27 2.46.53 3.7.8-1.29.28-2.57.55-3.85.83.23.86.46 1.72.69 2.59 3.19-.05 6.55.63 9.64-.3 3.14-3.24 5.86-6.86 8.84-10.24 1.59-6.93.2-14.14.75-21.19m-9 91.9c-.24 2.38-.57 4.77-.64 7.17-.01-2.15-.27-4.29-.54-6.41-2.02.96-4.2 1.8-5.78 3.44-1.03 2.17-.4 4.68-.41 6.99l1.41-.06c-.38.22-1.13.67-1.51.89-.06 2.26-.02 4.52.15 6.77 4.33-2.3 8.61-4.7 12.76-7.31l.38.24c.03-4.98.17-9.97-.11-14.95a47.85 47.85 0 0 0-5.71 3.23zM393.13 46.74c2.78-1.82 5.75-3.33 8.79-4.69 1.09 5.93 1.4 11.98 1.98 17.97.66 3.71-3.26 6.23-2.96 9.92-.05 8.34-.14 16.69.01 25.03-.16 1.36 1.11 2.16 1.84 3.11-.47-.08-1.41-.23-1.87-.31 0 3.28-.04 6.57-.12 9.85-1.88 1.12-3.77 2.24-5.71 3.26-.88-13.21-.52-26.46-.73-39.69-.61-.34-1.82-1.04-2.43-1.38-.28 9.12.06 18.24-.23 27.37-.75-9.25-.09-18.55-.49-27.81.73-7.54 1.45-15.08 1.92-22.63zM593.37 98.6c5.61 2.48 11.42 6.88 12.57 13.31-.58 2.73-3.29 4.87-6.04 5.03l-.2-.58c-1.58-6.92-9.4-11.35-16.19-9.57-1.07.23-2.13.51-3.16.85-4.98.96-8.49 5.16-13.33 6.26-.16-1.72-.29-3.44-.4-5.15 4.55-3.48 9.22-6.97 14.74-8.75 3.98-.61 7.99-1.07 12.01-1.4z"/><path d="M587.42 111.64c3.49 1.4 6.8 4.11 8.23 7.69 1.12 2.58-1.77 4.56-3.52 5.94-1.07.97-2.34-.12-3.4-.45l-.01-.34c.53-4.13-5.11-5.71-8.38-4.86-4.25.31-7.25 3.84-11.39 4.41l.02-1c.19-1.69-.43-3.83.91-5.17 4.81-4.2 11.16-6.43 17.54-6.22zM571.27 132.23c2.34-.67 4.84-1.41 7.28-.84 2.51 1.07 4.21 3.39 6.49 4.85 2.02.45 3.77-.84 5.44-1.76l.41-.24c3.23 2.05 6.81 4.65 7.31 8.76 1.51 9.16-3.1 18.36-9.24 24.9-6.3 6.28-15.04 9.04-22.26 14.03-3.24 1.92-6.57 3.68-9.84 5.55-3.53 1.94-6.99 3.97-10.52 5.89-7.14 3.31-13.65 7.8-20.73 11.2-3.6 1.75-7.69 1.11-11.17-.57l-.22-.51c-2.08-3.88-2.72-8.28-1.96-12.61 1.4-8.22 6.2-15.49 12.51-20.8 1.4-4.53 2.25-9.24 4.29-13.55 4.65-9.7 12.16-18.54 22.33-22.64 2.6-.53 5.23-.89 7.85-1.31 2.11 1.14 4.27 2.15 6.45 3.15 1.84-1.19 3.67-2.41 5.58-3.5zM242.94 239.9c39.1-22.34 78.01-45.01 117.11-67.35.33 26.16.05 52.33.14 78.49.65 3.43-3.17 4.28-5.37 5.76-37.58 21.63-75.17 43.26-112.71 64.95-.49-25.25-.03-50.53-.24-75.79.17-2.01-.39-4.41 1.07-6.06m39.87-2.04c-1.8.76-2.7 2.47-1.95 4.37 15.12-8.23 29.92-17.08 44.85-25.66l-.3-3.15c-14.25 8.06-28.37 16.35-42.6 24.44m.03 17.96c-1.72.81-2.77 2.41-2.04 4.33 15.86-8.42 31.14-17.91 46.82-26.65 2-.68 1.75-2.64 1.4-4.3-15.39 8.89-30.8 17.72-46.18 26.62m-10.48-13.55c-2.47 1.18-3.91 4.19-3.2 6.87 3.96 2.92 8.6-7.39 3.2-6.87m9.84 32.98c-1.72.63-1.54 2.51-1.47 3.99 12.45-6.52 24.42-13.96 36.69-20.81 1.92-.66 1.56-2.76 1.56-4.36-12.25 7.08-24.55 14.09-36.78 21.18m-9.96-14.97c-2.68 1.07-5.18 6.71-1.25 7.49 2.17-1.08 3.86-3.23 3.85-5.72.09-1.36-1.31-2.66-2.6-1.77m.02 19.02c-2.4 1.26-3.81 4.19-3.1 6.86 4.01 2.93 8.62-7.61 3.1-6.86zM506.61 267.61c5.65-2.66 11.39-5.7 17.78-5.9 4.77 1.55 6.01 6.94 6.27 11.37.54 9.09.94 18.58-2.3 27.26-1.47 4.54-5.73 7.23-9.56 9.63-2.89 1.78-6.27 2.17-9.58 1.77-4.45 5.74-10.68 10.6-18.16 11.15l-1.67-.88c-4.51-6.97-3.59-15.7-1.89-23.4 1.55-6.57 6.77-11.76 12.8-14.47 2.15-.95 4.67-.91 6.74-2.02 2.37-2.36 5.08-4.3 8.14-5.67-2.01-1.02-4.17-3.22-6.54-1.88-6.26 2.85-12.24 6.32-17.96 10.11-4.16 2.8-8.12 6.59-9.15 11.7-1.32 6.48-1.39 13.14-1.52 19.74.15 3.78.41 7.57 1.01 11.32.82 1.79 1.39 4.66 3.88 4.62 6.2.3 11.73-3.26 16.81-6.4 4.52-3.18 10.03-4.97 13.81-9.14 1.8-1.97 3.79-3.76 6-5.28l.37-.27c1.14 1.07 3.31 2.1 2.46 4.04-3.09 6.85-9.78 11.01-15.93 14.82-6.66 3.81-13.43 7.53-20.67 10.11-3.55 1.33-7.68 1.62-10.96-.56-4.66-9.44-3.65-20.22-3.83-30.41-.23-9.97 3.4-20.35 11.02-27.03 6.74-5.92 14.67-10.29 22.63-14.33m9.32 3.49c.01 1.31.11 2.63.27 3.94 1.56 7.56.46 15.32.81 22.97-.12 1.42.4 2.72 1.13 3.91 3.53-.95 4.91-4.62 4.87-7.98.16-6.76.77-13.67-.57-20.34-.64-3.17-4.02-3.02-6.51-2.5m-15.84 21.4c-4.75 2.26-4.88 8.26-4.22 12.77l1.31-.33c-.41.5-1.23 1.51-1.64 2.01.17 1.7.34 3.41.5 5.13 5.18.62 11.28-3.51 11.35-9.08.41-3.89.96-8.06-.57-11.77-1.89-2.35-4.81.25-6.73 1.27zM197.05 271.98c5.08-1.7 9.67-4.95 15.11-5.38.02 6.95-1.6 13.79-1.29 20.75 4.98.53 6.57-5.71 11.1-6.53 1.85-.44 4.21.31 4.67 2.37 1.24 4.7-1.13 9.68-4.52 12.91-3.22 3.18-9.64 1.94-11.14 6.98-1.24 6.33 1.25 12.64 1.15 18.98-.42 1.42-1.28 2.66-2.12 3.87-2.48 2.04-5.1 3.88-7.66 5.81.24 10.9.63 21.85-.2 32.74-.13.02-.39.05-.51.07l.06-.4c.56-3.04.8-6.11.71-9.19-.15-7.7.11-15.4-.24-23.09-1.39.92-2.76 1.87-4.2 2.72-1.32.33-2.68.43-4.06.31l.14-.82c.44-3.26 1.51-6.61.73-9.89-.51-2.11-2.79-2.23-4.54-2.37-.29.99-.57 1.98-.83 2.98-.35-.5-1.06-1.52-1.41-2.03-3.57 2.82-6.2 6.96-6.51 11.56-.03 2.58 1.95 5.19.64 7.68-1.35 3.08-4.66 4.33-7.51 5.59-3.76 1.46-7.43 3.97-11.65 3.22l.03-.8c.11-6.29 1.73-12.58.75-18.87-2.01-2.53-4.25 1.3-5.77 2.61-2.35 3.2-6.53 3.98-10.03 2.29l-.01-.69c-.62-5.26 1.06-10.74 5.22-14.16 2.89-2.97 8.67-1.32 10.28-5.78 1.69-6.36-.37-12.94-.38-19.38.66-2.61 2.76-4.52 4.77-6.16 3.97-3.07 8.25-5.72 12.52-8.35.44.37 1.32 1.12 1.76 1.5-.26 3.58-2.36 6.84-2.01 10.5.54 1.44 1.25 3.24 3.02 3.43 2.63.41 4.96-1.4 6.69-3.17 3-3.4 5.32-8.34 3.24-12.8-1.88-3.48.23-8 4-9.01zM127.71 421.65c3.9-2.22 7.8-4.42 11.64-6.73 12.01 6.67 23.78 13.76 35.77 20.46-1.97 2.37-4.17 4.74-5.04 7.77-.75 2.8-.62 5.73-.67 8.6-.58 5.58 1.86 10.92 6.05 14.55 3.58 3 7.88 5.01 12.28 6.53-9.18 5.31-18.36 10.62-27.57 15.88-21.11-12.71-42.69-24.66-63.95-37.12-3.23-2.06-6.91-3.45-9.75-6.08 4.56-2.71 9.16-5.36 13.8-7.94 1.69.99 3.38 2 5.08 3 8.48-5 17.2-9.62 25.49-14.92l.54-.1c-.4-1.97-2.02-3.04-3.67-3.9m-.28 19.82c-3.26 2.05-7.04 3.46-9.6 6.45 3.78.38 6.65-2.6 9.83-4.14 6.53-4.09 13.65-7.27 19.82-11.9-.38-.19-1.14-.56-1.52-.75-6.44 2.91-12.31 6.98-18.53 10.34m.48 10.83c.3.4.9 1.19 1.2 1.59 10.15-5.49 20.02-11.47 30.05-17.17-.32-.39-.96-1.15-1.29-1.53-10.07 5.55-19.92 11.49-29.96 17.11m24.92-2.54c-5 3.14-10.49 5.53-15.1 9.25 1.08.31 2.25.8 3.25-.02 5.97-3.29 11.77-6.9 17.77-10.15 1.62-1.03 3.81-1.74 4.35-3.82-3.93.15-6.9 3.09-10.27 4.74m-42.88 1.26c-1.51 3.32 5.97 3.38 4.93.09-1.57-.75-3.35-.93-4.93-.09m10.16 6.02c-.85 2.91 3.08 2.5 4.79 1.85 1.13-3.01-3.07-2.9-4.79-1.85m9.67 6.93c1.33 1.77 3.78.99 5.37.04-.3-.52-.9-1.55-1.2-2.07-1.42.07-4.8-.36-4.17 2.03z"/><path d="M177.03 445.19c4.49-8.11 14.22-11.19 22.89-12.11 11.01-.93 23.58 1.06 31.24 9.76 1.24 2.42 2.89 5.24 1.52 7.99-2.63 5.57-8.52 8.67-14.13 10.5-11.13 3.3-23.77 2.77-34.09-2.81-4.63-2.56-9.71-7.55-7.43-13.33m28.22-9.3c-.84 3.49-1.82 6.94-2.46 10.48-5.59.46-11.19.52-16.8.4-1.7.17-3.84-.51-5.07 1.08l.99.94c5.36.39 10.75.07 16.12.13 1.54.13 3.44-.4 4.53 1.08 1.44.13 2.8-.09 4.08-.68 4.93.64 9.68 2.27 14.37 3.84-2.21-3.1-6.53-2.27-9.65-3.87-.02-.61-.04-1.85-.06-2.47-1.39-.01-2.77-.01-4.16-.01.78-3.48 1.66-6.95 2.66-10.37-1.52-.19-3.03-.42-4.55-.55z"/></g><g fill="#9c97e8"><path d="M423.52 50.85c-.9-10.81 3.95-21.27 10.52-29.58 2.12 1.15 4.22 2.36 6.29 3.61l-.52.65c-4.21 5.03-7.27 11-9.03 17.31-1.7 6.36-1.89 13.5 1.43 19.39l-.86-.3c-4.93-1.1-7.38-6.47-7.83-11.08zM453.22 31.92c2.03 1.18 4.09 2.32 6.18 3.43-2.98 3.38-5.7 7-8.84 10.24-3.09.93-6.45.25-9.64.3-.23-.87-.46-1.73-.69-2.59 1.28-.28 2.56-.55 3.85-.83 3.16-3.42 5.95-7.15 9.14-10.55zM390.29 46.03c3.84-1.39 7.3-6.04 11.63-3.98-3.04 1.36-6.01 2.87-8.79 4.69-.47 7.55-1.19 15.09-1.92 22.63-.68-.34-2.06-1.01-2.74-1.34.48-7.34 1.24-14.67 1.82-22zM391.93 69.81c.61.34 1.82 1.04 2.43 1.38.21 13.23-.15 26.48.73 39.69-1.11-.25-2.17-.67-3.24-1-.22-4.11-.24-8.23-.15-12.34v-.36c.29-9.13-.05-18.25.23-27.37zM555.44 107.34c-3.29-1.06-6.66-3.99-4.79-7.75 5.31 3.07 10.76 5.91 15.97 9.16.11 1.71.24 3.43.4 5.15-3.86-2.18-7.64-4.52-11.58-6.56zM450.5 114.01c2.06 1.12 4.1 2.29 6.09 3.53-4.15 2.61-8.43 5.01-12.76 7.31-.17-2.25-.21-4.51-.15-6.77.38-.22 1.13-.67 1.51-.89 1.79-1.01 3.55-2.1 5.31-3.18zM513.02 147.79c5.34 2.93 10.62 5.97 16.04 8.74-2.04 4.31-2.89 9.02-4.29 13.55-5.38-2.71-10.56-5.77-15.82-8.7.74-4.69 1.97-9.32 4.07-13.59zM496.17 181.11c3.99.66 7.24 3.2 10.76 5 2.02 1.25 4.74 2.17 5.33 4.77-.76 4.33-.12 8.73 1.96 12.61-4.93-3-10.2-5.45-15-8.66-3.99-3.38-3.31-9.07-3.05-13.72z"/></g><g fill="#d4d4ff"><path d="M564.11 91.55c5.83-2.28 13.04-2.66 18.48.84 3.61 2.05 7.27 4 10.78 6.21-4.02.33-8.03.79-12.01 1.4-5.8-2.7-10.81-7.35-17.25-8.45zM554.96 123.44c3.99-2.34 8.96-1.82 12.58.99 2.51 2.07 5.69 1.99 8.73 2.22 4.95 2.17 9.56 5.08 14.21 7.83-1.67.92-3.42 2.21-5.44 1.76-2.28-1.46-3.98-3.78-6.49-4.85-2.44-.57-4.94.17-7.28.84-5.54-2.75-10.75-6.1-16.31-8.79zM536.28 124.84c4.5-2.01 9.75-.75 13.57 2.14 3.08 1.95 6.19 3.84 9.39 5.6-2.62.42-5.25.78-7.85 1.31-4.92-3.22-10.26-5.72-15.11-9.05zM105.35 434.53c5.52-3.23 11.1-6.35 16.61-9.59l1.25.07c-4.47 3.01-9.34 5.35-13.89 8.21-1.23.62-2.48 1.74-3.97 1.31z"/></g><g fill="#3da3ff"><path d="M377.55 104.41c3.37-4.33 8.97-5.96 14.15-6.87-.09 4.11-.07 8.23.15 12.34 1.07.33 2.13.75 3.24 1 1.94-1.02 3.83-2.14 5.71-3.26.08-3.28.12-6.57.12-9.85.46.08 1.4.23 1.87.31 4.47.63 9.01 2.55 12 6.04 2.07 2.31 1.73 5.55 1.79 8.42-4.81 5.03-11.6 8.58-18.71 7.76-7.77-.25-16.85-1.82-21.77-8.42-.25-2.55-.28-5.38 1.45-7.47zM378.06 120.74c.86.86 1.76 1.7 2.66 2.54.6 9.54-.35 19.12.45 28.65.66.02 2 .05 2.67.07.29-9.04-.19-18.09.22-27.12 2.19.93 6.29.68 5.79 4.07.25 8.66-.36 17.33.3 25.98.72.01 2.17.02 2.9.03 1.52-9.22-.11-18.64.78-27.93 1.71-.01 3.43-.01 5.14-.02.36 9.27-.14 18.55.23 27.81.45.27 1.35.81 1.8 1.09.46-.28 1.4-.84 1.86-1.11.6-9.56-.18-19.15.32-28.71 1.32-.03 2.65-.06 3.98-.08.81 8.63-.55 17.34.73 25.92.53-.23 1.58-.71 2.1-.94.47-8.67-.19-17.36.21-26.03-.2-1.53 1.71-1.67 2.64-2.26 1.17 8.25-1.07 16.73 1.16 24.83.03 7.31-7.75 11.56-14.2 12.29-2.56.22-5.13.22-7.69.03-5.96-.95-12.62-4.43-13.69-10.94-.45-5.76-.05-11.55-.19-17.32-.01-3.33.07-6.65-.07-9.98l-.1-.87z"/></g><g fill="#2b94e2"><path d="M376.1 111.88c4.92 6.6 14 8.17 21.77 8.42 7.11.82 13.9-2.73 18.71-7.76.33 3.18-.56 6.16-2.26 8.81-.48 8.71.18 17.47-.32 26.18-2.23-8.1.01-16.58-1.16-24.83-.93.59-2.84.73-2.64 2.26-.4 8.67.26 17.36-.21 26.03-.52.23-1.57.71-2.1.94-1.28-8.58.08-17.29-.73-25.92-1.33.02-2.66.05-3.98.08-.5 9.56.28 19.15-.32 28.71-.46.27-1.4.83-1.86 1.11-.45-.28-1.35-.82-1.8-1.09-.37-9.26.13-18.54-.23-27.81-1.71.01-3.43.01-5.14.02-.89 9.29.74 18.71-.78 27.93-.73-.01-2.18-.02-2.9-.03-.66-8.65-.05-17.32-.3-25.98.5-3.39-3.6-3.14-5.79-4.07-.41 9.03.07 18.08-.22 27.12-.67-.02-2.01-.05-2.67-.07-.8-9.53.15-19.11-.45-28.65-.9-.84-1.8-1.68-2.66-2.54-.75-1.34-1.48-2.68-2.12-4.07-.04-1.6.07-3.2.16-4.79zM126.53 426.75c1.3-.81 2.85-.88 4.31-1.1-8.29 5.3-17.01 9.92-25.49 14.92-1.7-1-3.39-2.01-5.08-3-1.7-.98-3.43-1.89-5.16-2.79-.48.24-1.46.72-1.95.96-.06-1.71-.14-3.42-.2-5.12l.46.25c4.37 2.33 8.68 4.8 12.83 7.5 7-3.44 13.51-7.76 20.28-11.62z"/></g><g fill="#402cb5"><path d="M212.6 210.61c54.47-31.26 108.82-62.76 163.34-93.94.64 1.39 1.37 2.73 2.12 4.07l.1.87c-54.02 30.7-107.7 61.99-161.62 92.87-7.32 3.77-12.65 11.18-14.07 19.25-.34 9.82-.16 19.67.03 29.49-1.5.67-3 1.33-4.5 2-.01-9.74.02-19.49-.02-29.23-.44-10.29 5.49-20.61 14.62-25.38zM197.97 334.59c1.44-.85 2.81-1.8 4.2-2.72.35 7.69.09 15.39.24 23.09.09 3.08-.15 6.15-.71 9.19-1.94-1.89-3.66-4.25-3.63-7.08-.2-7.49.02-14.98-.1-22.48zM203.13 380.53c2.62 3.3 6.08 5.75 9.83 7.62 33.59 19.36 67.16 38.76 100.73 58.14 4.38 2.6 9.5 3.41 14.49 3.96.02 2.93.03 5.87.02 8.81-4.91.2-9.92-.6-14.2-3.14-35.06-20.23-70.1-40.5-105.17-60.71-2.45-1.4-4.9-3.36-5.62-6.21-.23-2.82-.02-5.65-.08-8.47zM182.4 436.46c9.97-6.12 22.42-6.96 33.66-4.57 6.42 1.8 14.11 4.86 16.24 11.8l-1.14-.85c-7.66-8.7-20.23-10.69-31.24-9.76-8.67.92-18.4 4-22.89 12.11-.21-3.7 2.68-6.61 5.37-8.73zM75.89 448.48c25.17 14.74 50.56 29.12 75.76 43.8 2.33 1.41 4.84 2.5 7.47 3.18l.12 5.73c-1.74-.22-3.54-.39-5.03-1.41-25.4-14.66-50.81-29.3-76.21-43.96-3.02-1.2-1.75-4.86-2.11-7.34zM175.89 458.86c7.45 5.03 16.26 7.76 25.21 8.2-.03 2.54-.08 5.09-.15 7.64-1.18.13-2.37.25-3.55.37-3.22-.77-6.44-1.49-9.66-2.24-4.4-1.52-8.7-3.53-12.28-6.53.14-2.49.29-4.97.43-7.44z"/></g><path fill="#cbc3fb" d="M580.34 119.62c3.27-.85 8.91.73 8.38 4.86-2.88-1.48-5.69-3.08-8.38-4.86z"/><g fill="#5234ce"><path d="M216.54 214.48c53.92-30.88 107.6-62.17 161.62-92.87.14 3.33.06 6.65.07 9.98-53.26 30.59-106.45 61.3-159.72 91.88-4.49 2.11-8.39 6.28-8.5 11.48-.19 10.28-.01 20.58-.06 30.87-2.24-1.4-4.66-2.48-7.18-3.26-.36-9.61.01-19.22-.3-28.83 1.42-8.07 6.75-15.48 14.07-19.25zM392.11 159.85c2.56.19 5.13.19 7.69-.03-.01 28.08-.1 56.16-.03 84.24.35 9.96-5.19 20.37-14.25 24.82-5.37 2.22-10.18 5.54-15.26 8.31-50.56 29.12-101.16 58.17-151.68 87.36-1.87 1.1-3.68 2.29-5.55 3.39-3.99 2.57-8.44-.12-10.88-3.46.83-10.89.44-21.84.2-32.74 2.56-1.93 5.18-3.77 7.66-5.81-.14 8.69-.03 17.38-.09 26.07.13 1.89-.22 4.34 1.6 5.57 1.71.95 3.59-.06 5.13-.86 56.27-32.38 112.52-64.78 168.78-97.16 4.13-2.24 6.85-6.82 6.63-11.55-.05-29.38.13-58.77.05-88.15zM390.27 282.35c6.07-1.76 11.58 1.84 16.55 4.81 15.07 8.56 30.03 17.31 45.03 25.99 2 1.26 4.66 2.36 5.11 4.98.15 2.49-2.08 3.95-3.96 5.03-49 28.27-97.99 56.54-147.02 84.74-4.34 2.54-8.55 5.67-13.61 6.57-4.17.71-8.21-1.14-11.72-3.2-16.88-9.76-33.82-19.42-50.63-29.3-3.09-1.28-3.77-5.8-.68-7.49 50.58-29.08 101.09-58.3 151.64-87.46 3.02-1.67 5.88-3.81 9.29-4.67m-10.52 14.78c.41 2.43 3.11 3.06 4.87 4.3 2.83 1.48 5.92 4.2 9.28 2.64 3.46-1.76 6.93-3.6 9.93-6.09-1.46-2.23-4.02-3.2-6.2-4.54-2.28-1.29-4.79-3.1-7.56-2.2-3.66 1.54-6.96 3.8-10.32 5.89m-9.39 5.32c-3.01 1.56-6.01 3.2-8.79 5.15-1.31.79-.28 2.51.85 2.87 2.84 1.65 5.58 3.54 8.65 4.74 3.9 1.1 7.05-2.21 10.31-3.77 1.31-.79 4.51-2.32 2.3-3.97-4.15-2.09-8.31-6.72-13.32-5.02m37.97.01c-3.2 1.72-6.51 3.36-9.35 5.65.07.38.19 1.14.25 1.52 3.42 2.21 6.89 4.65 10.81 5.83 4.46-.2 8.11-3.48 11.82-5.67 1.81-1.58-1-2.84-2.11-3.57-3.57-1.72-7.16-5.5-11.42-3.76m-56.96 10.94c-3.24 1.7-6.51 3.43-9.44 5.64.09.4.28 1.2.37 1.6 3.1 2.05 6.29 4.06 9.72 5.51 3.94 1.1 7.1-2.23 10.4-3.78 1.33-.78 4.46-2.3 2.26-3.95-4.15-2.11-8.31-6.69-13.31-5.02m28.33 5.65c.55 2.41 3.15 3.1 4.97 4.32 2.79 1.52 5.9 4.07 9.25 2.61 3.44-1.77 6.93-3.58 9.91-6.1-1.64-2.41-4.49-3.38-6.84-4.89-2.09-1.28-4.5-2.68-7.03-1.82-3.62 1.59-6.92 3.8-10.26 5.88m47.61-5.62c-3.23 1.7-6.49 3.42-9.4 5.63.08.4.23 1.19.31 1.59 3.74 2.17 7.35 5.28 11.76 5.77 4.02-.85 7.44-3.53 10.89-5.67 1.75-1.52-.93-2.82-2.05-3.51-3.6-1.71-7.22-5.6-11.51-3.81m-62.68 14.11c-1.36.99-3.6 1.47-3.75 3.46 1.42 1.7 3.59 2.51 5.42 3.7 2.59 1.47 5.55 3.61 8.65 2.22 3.45-1.69 6.8-3.62 9.85-5.95-2.19-3.25-6.24-4.43-9.43-6.46-3.91-2.01-7.46 1.36-10.74 3.03m34.05 2.49c.54 2.42 3.16 3.07 4.98 4.3 2.8 1.52 5.87 4.03 9.24 2.61 3.43-1.75 6.85-3.61 9.9-6-2.65-3.41-7-5.04-10.77-6.92-5.12-.46-9.07 3.79-13.35 6.01m-81.6 3.25c-.04.42-.13 1.27-.17 1.7 4.08 2.27 8.07 6.33 13.02 5.85 3.75-1.89 7.9-3.6 10.75-6.76-3.1-2.79-6.91-4.68-10.64-6.47-4.93-.55-8.9 3.43-12.96 5.68m72.16 2.1c-3.14 1.76-6.59 3.23-9.23 5.68l-.13 1.05c2.76 2.36 6.13 3.91 9.29 5.67 4.12 1.82 7.73-1.69 11.17-3.44 1.17-.88 3.4-1.5 3.05-3.38-2.52-2.08-5.52-3.48-8.32-5.12-1.73-1.05-3.98-1.37-5.83-.46m-82.96 3.95c-2.84 1.87-6.59 2.93-8.58 5.76 1.95 3.05 6.07 4.15 9.07 6.12 3.81 2.22 7.36-1.26 10.62-2.86 1.35-1 3.49-1.47 3.96-3.27-.7-1.73-2.74-2.25-4.15-3.25-3.27-1.8-7.13-5.03-10.92-2.5m37.98.02c-2.77 1.53-5.59 3.01-8.16 4.87-.05.42-.16 1.27-.21 1.69 3.17 2.25 6.58 4.24 10.13 5.83 3.8.96 6.8-2.32 10.01-3.75 1.19-.88 4.29-1.87 2.87-3.78-2.57-1.9-5.44-3.35-8.22-4.92-1.94-1.25-4.49-1.13-6.42.06m-62.13 13.83c-1.25.96-4.01 1.64-3.16 3.74 2.77 2.01 5.81 3.63 8.82 5.25 1.92 1.1 4.36.84 6.17-.36 2.97-1.8 6.34-3.13 8.73-5.73-2.78-2.79-6.48-4.39-9.88-6.27-3.95-1.66-7.37 1.75-10.68 3.37m35.65 1.48c-2.59 1.66.65 3.48 2.19 4.26 3.46 1.66 7.19 5.51 11.26 3.26 3.22-1.92 6.92-3.29 9.44-6.16-3.11-2.81-6.93-4.77-10.71-6.52-4.64-.63-8.31 3.16-12.18 5.16m40.39-1.49c-1.24.95-4.19 1.72-3.15 3.79 2.72 2.05 5.79 3.59 8.77 5.23 2.16 1.32 4.82.6 6.8-.72 2.74-1.74 6-2.87 8.08-5.48-2.87-2.63-6.43-4.32-9.83-6.14-3.93-1.76-7.36 1.72-10.67 3.32m-88.72 7.5c-2.61 1.17-5.02 2.75-7.51 4.18-1.02.63-2.87 1.55-1.9 3.05 2.97 2.12 6.18 3.93 9.46 5.53 3.93 1.5 7.21-2.01 10.52-3.53 1.43-.79 4.85-2.54 2.34-4.2-4.05-2.06-8.01-6.38-12.91-5.03m37.48.22c-3.29 1.88-6.89 3.41-9.59 6.14 2.82 2.86 6.59 4.53 10.1 6.4 3.39 1.45 6.4-1.34 9.24-2.76 1.55-1.14 3.94-1.67 4.63-3.62-.58-1.78-2.71-2.28-4.09-3.3-3.12-1.65-6.57-4.73-10.29-2.86m36.67.69c-14.39 8.31-28.78 16.64-43.21 24.89-1.18.63-2.14 1.58-3.07 2.52 2.51 2.54 5.85 4 8.9 5.78 1.98 1.25 4.6 1.24 6.58-.01 14.83-8.49 29.62-17.08 44.44-25.59.92-.58 2.9-1.7 1.67-2.98-2.52-1.99-5.46-3.39-8.23-4.99-2.19-1.42-5-1-7.08.38M241.03 377.1c-.01.42-.05 1.26-.06 1.69 4.01 2.31 8.01 6.31 12.92 5.82 3.81-1.75 7.73-3.67 10.79-6.61-3.01-2.94-6.94-4.83-10.72-6.58-4.93-.6-8.88 3.44-12.93 5.68m47.42-5.48c-3.25 1.6-6.44 3.37-9.38 5.48l-.16 1.68c3.22 2.22 6.6 4.31 10.21 5.83 3.96.79 7.08-2.52 10.42-4.07 1.41-.65 4.08-2.5 1.84-3.9-4.08-2-8.03-6.41-12.93-5.02m-19.06 10.98c-2.65 1.2-5.1 2.79-7.61 4.24-.98.6-2.8 1.53-1.76 2.96 2.95 2.16 6.19 3.92 9.46 5.55 3.94 1.45 7.2-1.99 10.5-3.54 1.18-.93 4.06-1.72 3.02-3.7-2.54-1.95-5.43-3.38-8.19-4.96-1.61-.98-3.66-1.24-5.42-.55m17.18 11.85c-2.79 1.77-6.12 2.92-8.22 5.58 2.95 2.68 6.6 4.46 10.12 6.27 3.88 1.43 7.11-1.89 10.36-3.45 1.27-.98 4.05-1.66 3.21-3.8-2.62-1.87-5.49-3.36-8.28-4.96-2.2-1.4-5.09-1.07-7.19.36zM415.06 404.08c33.95-19.78 68.24-38.98 102.03-59.05.13 2.35.28 4.7.47 7.06-2.59 3.73-6.84 5.52-10.61 7.76-52 29.98-104.03 59.91-156.01 89.93-7.18 3.92-14.12 9.41-22.74 9.28.01-2.94 0-5.88-.02-8.81 4.68.02 9.26-1.39 13.29-3.73 24.5-14.19 49.04-28.31 73.59-42.44zM358.1 384.5c15.62-9.01 31.11-18.27 46.93-26.92 7.79 3.8 15.11 8.47 22.65 12.72 4.3 2.85 9.21 4.74 13.15 8.13-14.73 8.75-29.67 17.14-44.45 25.79-2.4 1.89-4.92-.3-7.07-1.43-10.38-6.14-21.08-11.79-31.21-18.29zM225.47 463.48c5.94-2.56 12.19-6.36 14.37-12.83.87 5.25-.58 10.94-4.57 14.59-7.52 7.14-18.27 9.06-28.22 9.96-14.51 7.92-28.68 16.51-43.08 24.64-1.44.86-3.12 1.03-4.73 1.35l-.12-5.73c2.42-.28 4.86-.8 6.95-2.1 10.41-6.15 20.98-12.03 31.33-18.29 1.18-.12 2.37-.24 3.55-.37.07-2.55.12-5.1.15-7.64 8.27.54 16.56-.94 24.37-3.58zM169.41 451.75c1.91 2.57 3.88 5.17 6.48 7.11-.14 2.47-.29 4.95-.43 7.44-4.19-3.63-6.63-8.97-6.05-14.55z"/></g><g fill="#5840e2"><path d="M241.85 228.83c39.33-22.93 78.89-45.49 118.31-68.28.03 4 .13 8-.11 12-39.1 22.34-78.01 45.01-117.11 67.35l-.99.55c-.11-3.87-.04-7.75-.1-11.62zM385.52 268.88c7.08-1.1 14.79-1.4 21.21 2.29 19.43 11.15 38.78 22.43 58.22 33.54.14 7.75-.33 15.58 1.08 23.24.57 2.68 1.33 5.65 3.62 7.41 2.21 1.6 4.73 2.72 7.14 4.02 3.28 2.18 7.41 1.89 10.96.56 7.24-2.58 14.01-6.3 20.67-10.11 3.64 2.26 8.8 4.19 9.48 9.02-.07 4.41.31 8.85-.34 13.24-.19-2.36-.34-4.71-.47-7.06-33.79 20.07-68.08 39.27-102.03 59.05-24.55 14.13-49.09 28.25-73.59 42.44-4.03 2.34-8.61 3.75-13.29 3.73-4.99-.55-10.11-1.36-14.49-3.96-33.57-19.38-67.14-38.78-100.73-58.14-3.75-1.87-7.21-4.32-9.83-7.62.13-2.09-.13-4.39 1.18-6.17 2.06-3.11 5.7-4.48 8.72-6.42 1.87-1.1 3.68-2.29 5.55-3.39 50.52-29.19 101.12-58.24 151.68-87.36 5.08-2.77 9.89-6.09 15.26-8.31m4.75 13.47c-3.41.86-6.27 3-9.29 4.67-50.55 29.16-101.06 58.38-151.64 87.46-3.09 1.69-2.41 6.21.68 7.49 16.81 9.88 33.75 19.54 50.63 29.3 3.51 2.06 7.55 3.91 11.72 3.2 5.06-.9 9.27-4.03 13.61-6.57C355.01 379.7 404 351.43 453 323.16c1.88-1.08 4.11-2.54 3.96-5.03-.45-2.62-3.11-3.72-5.11-4.98-15-8.68-29.96-17.43-45.03-25.99-4.97-2.97-10.48-6.57-16.55-4.81M358.1 384.5c10.13 6.5 20.83 12.15 31.21 18.29 2.15 1.13 4.67 3.32 7.07 1.43 14.78-8.65 29.72-17.04 44.45-25.79-3.94-3.39-8.85-5.28-13.15-8.13-7.54-4.25-14.86-8.92-22.65-12.72-15.82 8.65-31.31 17.91-46.93 26.92z"/><path d="M480.01 316.12c2.57 2.75 6.14 4.13 9.38 5.89l1.67.88c-3.19 1.86-6.52 3.44-10.04 4.55-.6-3.75-.86-7.54-1.01-11.32zM135.36 411.3c2.84-1.75 6.63-1.8 9.53-.13 12.03 6.8 23.9 13.91 35.99 20.63 11.09-5.68 24.2-6.52 36.28-4.07 7.71 1.75 15.75 5.01 20.48 11.67 2.42 3.21 2.61 7.4 2.2 11.25-2.18 6.47-8.43 10.27-14.37 12.83-7.81 2.64-16.1 4.12-24.37 3.58-8.95-.44-17.76-3.17-25.21-8.2-2.6-1.94-4.57-4.54-6.48-7.11.05-2.87-.08-5.8.67-8.6.87-3.03 3.07-5.4 5.04-7.77-11.99-6.7-23.76-13.79-35.77-20.46-3.84 2.31-7.74 4.51-11.64 6.73-1.76-.98-3.52-1.95-5.27-2.93 4.32-2.45 8.58-5 12.92-7.42m47.04 25.16c-2.69 2.12-5.58 5.03-5.37 8.73-2.28 5.78 2.8 10.77 7.43 13.33 10.32 5.58 22.96 6.11 34.09 2.81 5.61-1.83 11.5-4.93 14.13-10.5 1.37-2.75-.28-5.57-1.52-7.99l1.14.85c-2.13-6.94-9.82-10-16.24-11.8-11.24-2.39-23.69-1.55-33.66 4.57zM100.86 431.72c5.71-3.49 11.68-6.53 17.34-10.11 1.59.82 3.17 1.65 4.75 2.5l-.99.83c-5.51 3.24-11.09 6.36-16.61 9.59-1.57-.83-3.09-1.73-4.49-2.81zM93.16 435.74c.49-.24 1.47-.72 1.95-.96 1.73.9 3.46 1.81 5.16 2.79-4.64 2.58-9.24 5.23-13.8 7.94 2.84 2.63 6.52 4.02 9.75 6.08 21.26 12.46 42.84 24.41 63.95 37.12 9.21-5.26 18.39-10.57 27.57-15.88 3.22.75 6.44 1.47 9.66 2.24-10.35 6.26-20.92 12.14-31.33 18.29-2.09 1.3-4.53 1.82-6.95 2.1-2.63-.68-5.14-1.77-7.47-3.18-25.2-14.68-50.59-29.06-75.76-43.8.09-1.46.16-3.15 1.7-3.83 5.14-3.05 10.29-6.11 15.57-8.91z"/><path d="M205.25 435.89c1.52.13 3.03.36 4.55.55-1 3.42-1.88 6.89-2.66 10.37 1.39 0 2.77 0 4.16.01.02.62.04 1.86.06 2.47 3.12 1.6 7.44.77 9.65 3.87-4.69-1.57-9.44-3.2-14.37-3.84-.91-.18-1.81-.36-2.71-.54l2.09-.68c-1.09-.57-2.16-1.14-3.23-1.73.64-3.54 1.62-6.99 2.46-10.48z"/></g><g fill="#10c7a4"><path d="M556.86 187.48c3.27-1.87 6.6-3.63 9.84-5.55-.14 6.2-.07 12.4-.06 18.6.02 2.11.06 4.23.1 6.34 1.99-1.02 3.98-2.05 5.98-3.05-3.79 8.02-7.15 16.24-11 24.23-.68-.43-1.42-.77-2.01-1.28-2.65-3.85-5.79-7.31-9.11-10.57 2.05-1.33 4.12-2.64 6.23-3.88.21-8.28.12-16.56.03-24.84zM272.36 242.27c5.4-.52.76 9.79-3.2 6.87-.71-2.68.73-5.69 3.2-6.87zM272.24 260.28c1.29-.89 2.69.41 2.6 1.77.01 2.49-1.68 4.64-3.85 5.72-3.93-.78-1.43-6.42 1.25-7.49zM272.26 279.3c5.52-.75.91 9.79-3.1 6.86-.71-2.67.7-5.6 3.1-6.86z"/></g><g fill="#127c68"><path d="M546.34 193.37c3.53-1.92 6.99-3.95 10.52-5.89.09 8.28.18 16.56-.03 24.84-3.95-1.39-7.31-4.68-11.6-4.81.27-.36.8-1.09 1.07-1.45.21-4.23.01-8.46.04-12.69zM542.94 212.87c2.59.99 5.26 1.88 7.66 3.33 3.32 3.26 6.46 6.72 9.11 10.57-3.6-2.11-7.85-3.47-10.53-6.82-2.07-2.37-4.28-4.62-6.24-7.08z"/></g><path fill="#1f9f86" d="M566.64 200.53c2.01 1.11 4.04 2.21 6.08 3.29-2 1-3.99 2.03-5.98 3.05-.04-2.11-.08-4.23-.1-6.34z"/><path fill="#169b81" d="M540.94 209.61c1.41-.73 2.82-1.48 4.29-2.1 4.29.13 7.65 3.42 11.6 4.81-2.11 1.24-4.18 2.55-6.23 3.88-2.4-1.45-5.07-2.34-7.66-3.33-1.28-.59-1.72-2-2-3.26z"/><path fill="#57b7ff" d="M93.42 430.87c8.17-5.02 16.64-9.53 24.83-14.51 1.4.78 2.79 1.57 4.19 2.36 1.75.98 3.51 1.95 5.27 2.93 1.65.86 3.27 1.93 3.67 3.9l-.54.1c-1.46.22-3.01.29-4.31 1.1-6.77 3.86-13.28 8.18-20.28 11.62-4.15-2.7-8.46-5.17-12.83-7.5m7.44.85c1.4 1.08 2.92 1.98 4.49 2.81 1.49.43 2.74-.69 3.97-1.31 4.55-2.86 9.42-5.2 13.89-8.21l-1.25-.07.99-.83c-1.58-.85-3.16-1.68-4.75-2.5-5.66 3.58-11.63 6.62-17.34 10.11z"/><g fill="#c7c0fb"><path d="M127.43 441.47c6.22-3.36 12.09-7.43 18.53-10.34.38.19 1.14.56 1.52.75-6.17 4.63-13.29 7.81-19.82 11.9-3.18 1.54-6.05 4.52-9.83 4.14 2.56-2.99 6.34-4.4 9.6-6.45zM152.83 449.76c3.37-1.65 6.34-4.59 10.27-4.74-.54 2.08-2.73 2.79-4.35 3.82-6 3.25-11.8 6.86-17.77 10.15-1 .82-2.17.33-3.25.02 4.61-3.72 10.1-6.11 15.1-9.25z"/></g><path fill="#c7bffb" d="M127.91 452.3c10.04-5.62 19.89-11.56 29.96-17.11.33.38.97 1.14 1.29 1.53-10.03 5.7-19.9 11.68-30.05 17.17-.3-.4-.9-1.19-1.2-1.59z"/><path fill="#555ae7" d="M185.99 446.77c5.61.12 11.21.06 16.8-.4 1.07.59 2.14 1.16 3.23 1.73l-2.09.68c-7.57-1.65-15.35-.61-23.01-.93 1.23-1.59 3.37-.91 5.07-1.08z"/><path fill="#6b5bcc" d="M180.92 447.85c7.66.32 15.44-.72 23.01.93.9.18 1.8.36 2.71.54-1.28.59-2.64.81-4.08.68-1.09-1.48-2.99-.95-4.53-1.08-5.37-.06-10.76.26-16.12-.13l-.99-.94z"/><path fill="#48a9ff" d="M109.95 451.02c1.58-.84 3.36-.66 4.93.09 1.04 3.29-6.44 3.23-4.93-.09z"/><path fill="#61b9ff" d="M120.11 457.04c1.72-1.05 5.92-1.16 4.79 1.85-1.71.65-5.64 1.06-4.79-1.85z"/><path fill="#6bbdff" d="M129.78 463.97c-.63-2.39 2.75-1.96 4.17-2.03.3.52.9 1.55 1.2 2.07-1.59.95-4.04 1.73-5.37-.04z"/></svg>