<svg width="530pt" height="422pt" viewBox="0 0 530 422" xmlns="http://www.w3.org/2000/svg"><path fill="#fff" d="M252.98 112.53c8.27 1.52 16.82 1.32 25-.65-.01 2.14-.02 4.28-.02 6.41-8.78 2.09-17.84 1.95-26.7.51v-.42c.01-1.68.04-3.36.17-5.04.38-.2 1.16-.61 1.55-.81z"/><g fill="#5840e2"><path d="M403.41 22.96c3.51 1.82 6.9 3.86 10.26 5.95l-.39.76c-19.55 11-38.89 22.39-58.23 33.73l-.85.45c-3.4-2.1-7-3.87-10.28-6.16 19.73-11.74 39.75-22.99 59.49-34.73zM231.01 83.62c-.03-3.38-.15-6.91 1.55-9.96 1.07 3.74 2.17 7.8 5.33 10.38 7.17 6.09 16.91 8.1 26.1 8.19 9.4-.12 19.48-2.11 26.58-8.72 2.81-2.5 3.76-6.26 4.93-9.69 1.68 3.01 1.49 6.5 1.5 9.83-3.8 7.28-11.28 11.39-18.89 13.63-.28 4.82-.49 9.69.46 14.45-.14.04-.44.11-.59.15-8.18 1.97-16.73 2.17-25 .65l-1.73-.36c.22-4.91.31-9.83-.06-14.73-8.16-1.83-16.17-6.17-20.18-13.82zM360.43 119.12c15.59-9.68 31.75-18.44 47.51-27.85 2.05 1.06 4.1 2.12 6.14 3.21-16.02 9.62-32.31 18.8-48.44 28.26-3.75 2.25-7.71 4.18-11.2 6.85.22-.65.67-1.95.89-2.59 1.84-2.54 3.52-5.18 5.1-7.88zM168.57 134.9c1.47.95 3.49 1.9 3.34 3.99.23 5.32.08 10.65.01 15.98-22.73 12.73-45.31 25.75-67.96 38.62l-1.27.64c-.17-6.1-.29-12.21-.05-18.31.78-3.47 3.63-5.88 6.64-7.47 19.84-11.01 39.3-22.71 59.29-33.45m-4.23 10.43c-2.24 1.08-3.7 3.91-2.97 6.36 2.16 1.76 4.48-1.17 5.1-3.13.73-1.45-.19-4.06-2.13-3.23m-10.21 5.73c-1.77 1.48-2.79 3.86-2.23 6.15 4.46 2.75 8.14-8.5 2.23-6.15m-11.38 12.26c1.85-.42 3.77-1.19 4.48-3.12.78-1.41 1.16-4.34-1.16-4.27-3.13.85-4.36 4.53-3.32 7.39zM392.57 163.36c2.81-1.83 5.88-3.45 9.26-3.79 2.76-.14 5.52-.19 8.28-.42 3.55 1.84 7.03 4.3 8.65 8.11 2.62 5.3 2.33 11.4 2.32 17.15-.05.64-.14 1.91-.18 2.55-1.62 1.05-3.31 2-4.97 2.98-.14-6.55.18-13.7-3.39-19.5-.82-1.56-2.44-2.22-4.13-2.21l-.26-.04c-1.57-3.35-5.81-2.43-8.68-1.68-9.52 3.15-16.51 11.22-21.25 19.74-4.59 8.09-6.56 17.48-5.77 26.75l-.04 1.99c-1.72 1-3.5 1.9-5.28 2.81.05-1.43.11-2.85.17-4.26.74-3.35.85-6.78.17-10.15.49-4.03 1.6-7.97 3.14-11.72 4.59-11.14 11.68-21.73 21.96-28.31zM111 196.01c4.07-.33 8.15-.65 12.23-.92-.21 1.42.15 3.13-.99 4.25-3.66 4.06-7.44 8.01-11.23 11.95.02-1.36.04-2.72.07-4.08 2.76-2.69 5.47-5.44 8.11-8.25-2.73.27-5.46.6-8.18.96-.01-1.31-.01-2.61-.01-3.91zM124.03 204.13c4.04-2.09 7.74-4.88 12.1-6.29-.22.59-.66 1.78-.87 2.38-3.57 2.45-7.53 4.27-11.2 6.59 0-.67-.02-2.01-.03-2.68zM174.4 245.25c2.06.55 3.75 2.38 3.55 4.61.13 11.99.02 23.98.04 35.97-.01 1-.01 2.01-.02 3.03 0 6.39.06 12.77.02 19.16 0 1.57 0 3.14.01 4.72-.05 6.78.1 13.57-.04 20.35-.1 4.29-2.9 8.24-6.71 10.1-12.43 6.64-24.8 13.39-37.23 20.03-2.05 1.4-4.43.45-6.43-.52.23-1.89.44-3.78.48-5.68-.16-25.02.14-50.03-.04-75.05-.06-3.63.32-7.25.88-10.82 4.95-5.62 12.19-8.07 18.49-11.74 9.02-4.67 17.72-10.01 27-14.16m-.9 12.28c-12.96 6.61-25.64 13.8-38.53 20.57-2.33 1.11-4.9 2.89-4.69 5.82.01 20.37.08 40.74-.01 61.1-.02 1.77.25 3.52.61 5.25 13.44-6.37 26.24-14.05 39.48-20.86 2.57-1.23 5.74-3.03 5.37-6.38.05-21.03.01-42.06.02-63.09.28-1.33-.64-3.52-2.25-2.41m-24.76 5.2c-1.13.81-1.38 1.9-.75 3.26 3.53-1.22 6.81-3.11 9.89-5.21.11-.77.32-2.3.43-3.07-3.33 1.36-6.62 2.93-9.57 5.02m-.02 82.99c-.9 1.23-2.09 4.27.21 4.7 4.17-1.57 10.76-3.79 9.17-9.57-3.33 1.14-6.73 2.47-9.38 4.87z"/><path d="M134.76 286.08c12.17-6.45 24.21-13.15 36.44-19.49-.35 2.39 1.15 5.84-1.28 7.4-11.43 5.81-22.57 12.18-33.95 18.08l-1.16.61c-.04-2.2-.05-4.4-.05-6.6z"/></g><g fill="#5234ce"><path d="M413.67 28.91l.24-.48c.26 22.02-.08 44.04.17 66.05-2.04-1.09-4.09-2.15-6.14-3.21.01-5.16 0-10.31.01-15.47-.02-12.24 0-24.47-.01-36.7 2.34-2.8 3.91-6.11 5.34-9.43l.39-.76zM355.05 63.97c1.86.83 3.68 1.74 5.51 2.63v.46c-.64 17.35.23 34.71-.13 52.06-1.58 2.7-3.26 5.34-5.1 7.88-.97-3.24-.84-6.63-.8-9.96.03-16.37.01-32.74 0-49.11-.07-1.36.11-2.68.52-3.96z"/></g><g fill="#402cb5"><path d="M355.05 63.4c19.34-11.34 38.68-22.73 58.23-33.73-1.43 3.32-3 6.63-5.34 9.43-15.71 9.29-31.53 18.43-47.38 27.5-1.83-.89-3.65-1.8-5.51-2.63v-.57zM238.63 64.65c7.06-5.7 16.45-7.57 25.33-7.67 8.89.06 18.29 1.97 25.38 7.64 3.03 2.31 4.57 5.86 6.16 9.2-1.17 3.43-2.12 7.19-4.93 9.69-7.1 6.61-17.18 8.6-26.58 8.72-9.19-.09-18.93-2.1-26.1-8.19-3.16-2.58-4.26-6.64-5.33-10.38 1.6-3.26 3.08-6.76 6.07-9.01zM343.92 57.69c3.28 2.29 6.88 4.06 10.28 6.16l.15.4c.14 21.6.14 43.2-.05 64.8-3.41-2.07-6.88-4.03-10.3-6.06-.05-21.77.1-43.53-.08-65.3zM231.01 83.62c4.01 7.65 12.02 11.99 20.18 13.82.37 4.9.28 9.82.06 14.73-7.88-1.87-16.15-5.84-19.75-13.55-.98-4.93-.33-10.01-.49-15zM278.11 97.28c7.61-2.24 15.09-6.35 18.89-13.63-.17 5.02.47 10.12-.51 15.07-3.38 7.04-10.7 10.98-17.92 13.01-.95-4.76-.74-9.63-.46-14.45zM157.97 131.85c3.8-2.44 7.25 1.67 10.6 3.05-19.99 10.74-39.45 22.44-59.29 33.45-3.01 1.59-5.86 4-6.64 7.47-.79 6.25-.09 12.57-.28 18.84-2.81-1.48-5.58-3.02-8.33-4.58 0-5.02-.11-10.04-.02-15.06-.03-4.41 2.75-8.52 6.59-10.56 19.16-10.81 38.21-21.8 57.37-32.61zM387.97 160.06c6.2-3.96 15.12-6.22 21.38-1.14-2.51.25-5.02.34-7.52.65-3.38.34-6.45 1.96-9.26 3.79-10.28 6.58-17.37 17.17-21.96 28.31-1.54 3.75-2.65 7.69-3.14 11.72-.57 3.36-.51 6.77-.17 10.15-.06 1.41-.12 2.83-.17 4.26-1.83-.85-3.66-1.68-5.48-2.54.1-6.98-.22-14.09 1.88-20.85 3.99-13.68 12.29-26.59 24.44-34.35zM408.41 168.23c1.69-.01 3.31.65 4.13 2.21 3.57 5.8 3.25 12.95 3.39 19.5-1.86-.8-3.77-1.47-5.63-2.27v-1.51c.32-6.02.41-12.24-1.89-17.93zM358.24 223.3c3.4-1.44 7.17.41 9.6 2.85 4.7 4.49 8.03 11.2 6.81 17.81-.61 3.31-4.25 5.8-7.54 4.71-6.25-1.79-10.08-7.92-11.93-13.79-1.14-3.91-1.27-9.61 3.06-11.58zM165.43 242.57c3.24-1.74 6.16 1.46 8.97 2.68-9.28 4.15-17.98 9.49-27 14.16-6.3 3.67-13.54 6.12-18.49 11.74-2.36-.93-4.74-1.84-7.12-2.71 1.68-2.2 3.42-4.49 6.01-5.68 12.58-6.67 25.04-13.55 37.63-20.19zM266.12 287.24c3.46 1.37 6.91 2.76 10.3 4.28-3.05 4.95-5.74 10.13-9.07 14.9-1.65 2.43-5.81 2.09-7.12-.53-2.99-4.56-5.62-9.35-8.42-14.02 2.22.74 4.45 1.49 6.68 2.2 2.5-2.33 5.05-4.6 7.63-6.83z"/></g><g fill="#e3e1ff"><path d="M360.56 66.6c15.85-9.07 31.67-18.21 47.38-27.5.01 12.23-.01 24.46.01 36.7-2.75-.78-6.27-3.08-8.76-.61-5.2 5.22-8.83 11.79-13.89 17.14-.88.82-1.95 1.82-3.26 1.6-5.75-.73-11-3.72-16.76-4.33-1.63.59-3.06 1.61-4.54 2.48-.18-8.34.04-16.68-.18-25.02v-.46m33.81-15.17c-4.18 2.43-6.84 6.98-7.68 11.67-.42 2.25-.22 4.91 1.57 6.56 2.27 1.72 5.34.46 7.31-1.12 4.18-3.51 7.06-9.07 6.17-14.61-.5-3.43-4.81-4.48-7.37-2.5zM251.26 118.8c8.86 1.44 17.92 1.58 26.7-.51-.05 50.57 0 101.13 0 151.7-3.73-.29-7.28-1.65-11-1.96-5.46.4-10.28 4.12-15.86 3.61.19-3.56.36-7.11.33-10.67-.15-47.39.15-94.78-.17-142.17zM103.96 193.49c22.65-12.87 45.23-25.89 67.96-38.62.19 15.39.05 30.79.08 46.19.13 4.38-2.11 8.82-5.88 11.11-19.44 10.87-38.67 22.13-58.12 32.97-2.07 1.4-4.56.68-6.52-.52.88-5.84.41-11.75.47-17.63.04-10.63-.08-21.26.04-31.89.65-.55 1.31-1.08 1.97-1.61m7.04 2.52c0 1.3 0 2.6.01 3.91 2.72-.36 5.45-.69 8.18-.96-2.64 2.81-5.35 5.56-8.11 8.25-.03 1.36-.05 2.72-.07 4.08 3.79-3.94 7.57-7.89 11.23-11.95 1.14-1.12.78-2.83.99-4.25-4.08.27-8.16.59-12.23.92m13.03 8.12c.01.67.03 2.01.03 2.68 3.67-2.32 7.63-4.14 11.2-6.59.21-.6.65-1.79.87-2.38-4.36 1.41-8.06 4.2-12.1 6.29z"/></g><path fill="#fac13c" d="M394.37 51.43c2.56-1.98 6.87-.93 7.37 2.5.89 5.54-1.99 11.1-6.17 14.61-1.97 1.58-5.04 2.84-7.31 1.12-1.79-1.65-1.99-4.31-1.57-6.56.84-4.69 3.5-9.24 7.68-11.67z"/><path fill="#9c97e8" d="M360.43 119.12c.36-17.35-.51-34.71.13-52.06.22 8.34 0 16.68.18 25.02 1.48-.87 2.91-1.89 4.54-2.48 5.76.61 11.01 3.6 16.76 4.33 1.31.22 2.38-.78 3.26-1.6 5.06-5.35 8.69-11.92 13.89-17.14 2.49-2.47 6.01-.17 8.76.61-.01 5.16 0 10.31-.01 15.47-15.76 9.41-31.92 18.17-47.51 27.85z"/><g fill="#e6eaeb"><path d="M231.5 98.62c3.6 7.71 11.87 11.68 19.75 13.55l1.73.36c-.39.2-1.17.61-1.55.81-.13 1.68-.16 3.36-.17 5.04-8.25-1.43-16.39-6.03-20.14-13.79-.24-1.99.18-3.99.38-5.97zM278.57 111.73c7.22-2.03 14.54-5.97 17.92-13.01.22 1.98.76 4 .34 5.99-3.57 7.4-11.2 11.61-18.87 13.58 0-2.13.01-4.27.02-6.41.15-.04.45-.11.59-.15zM142.75 163.32c-1.04-2.86.19-6.54 3.32-7.39 2.32-.07 1.94 2.86 1.16 4.27-.71 1.93-2.63 2.7-4.48 3.12zM135.97 292.07c11.38-5.9 22.52-12.27 33.95-18.08l1.16-.56c.35 14.2.12 28.41.16 42.62.45 2.17-1.47 3.31-3.1 4.16-11.11 5.77-22.01 11.94-33.14 17.68-.59-13.3 0-26.62-.32-39.92.16-1.97-.45-4.48 1.29-5.9m29.36-7.91c-1.2.43-1.86 2.67-.34 3.13 2.16.43 2.92-4.06.34-3.13M147.6 294.5c-2.14 1.32-5.18 1.92-5.99 4.64 4.74-1.9 9.08-4.64 13.63-6.93 2.22-1.26 4.87-2.16 6.22-4.5-5.06 1.24-9.22 4.57-13.86 6.79m16.75 1.44c1.74-.71 2.61-2.12 2.43-4.01-1.85.56-2.61 2.14-2.43 4.01m-19.04 7.32c-2.09 1.17-4.8 1.98-5.49 4.59 6.06-2.29 11.41-6.02 17.22-8.8 1.74-.95 4.07-1.71 4.19-4.05-5.47 2.43-10.53 5.67-15.92 8.26m20.02-3.16c-1.18.42-1.91 2.7-.32 3.08 2.21.46 2.9-3.96.32-3.08m-15.3 8.95c-2.01 1.14-4.41 2.01-5.47 4.24 4.06-1.12 7.48-3.65 11.22-5.48 2.05-1.13 4.48-1.97 5.65-4.18-4.13 1.04-7.63 3.56-11.4 5.42z"/></g><g fill="#c2b9fa"><path d="M231.12 104.59c3.75 7.76 11.89 12.36 20.14 13.79v.42c.32 47.39.02 94.78.17 142.17.03 3.56-.14 7.11-.33 10.67-5.55-2.97-10.85-6.4-16.52-9.14-2.08-.16-4.18-.07-6.22.34-8.53 1.76-16.93 4.17-25.07 7.27-9.63 4.28-20.01 9.09-25.32 18.75.01-1.02.01-2.03.02-3.03 11.26-13.07 28.39-18.93 44.67-22.84 3.25-1.08 6.65-1.49 10.07-1.41-.78-3.13-1.63-6.28-1.62-9.53.04-49.15 0-98.31.01-147.46zM277.96 118.29c7.67-1.97 15.3-6.18 18.87-13.58-.04 47.43-.01 94.87-.01 142.3-.11 4.37.45 8.91-.95 13.13-.8.81-1.64 1.58-2.52 2.3-5.28 2.21-10.21 5.13-15.39 7.55 0-50.57-.05-101.13 0-151.7zM102.36 194.66c.19-6.27-.51-12.59.28-18.84-.24 6.1-.12 12.21.05 18.31l1.27-.64c-.66.53-1.32 1.06-1.97 1.61-.12 10.63 0 21.26-.04 31.89-.06 5.88.41 11.79-.47 17.63-2.32-1.68-5.23-2.7-7.07-4.96-.85-2.79-.41-5.77-.44-8.65.09-13.64-.02-27.28.06-40.93 2.75 1.56 5.52 3.1 8.33 4.58zM173.5 257.53c1.61-1.11 2.53 1.08 2.25 2.41-.01 21.03.03 42.06-.02 63.09.37 3.35-2.8 5.15-5.37 6.38-13.24 6.81-26.04 14.49-39.48 20.86-.36-1.73-.63-3.48-.61-5.25.09-20.36.02-40.73.01-61.1-.21-2.93 2.36-4.71 4.69-5.82 12.89-6.77 25.57-13.96 38.53-20.57m-38.74 28.55c0 2.2.01 4.4.05 6.6l1.16-.61c-1.74 1.42-1.13 3.93-1.29 5.9.32 13.3-.27 26.62.32 39.92 11.13-5.74 22.03-11.91 33.14-17.68 1.63-.85 3.55-1.99 3.1-4.16-.04-14.21.19-28.42-.16-42.62l-1.16.56c2.43-1.56.93-5.01 1.28-7.4-12.23 6.34-24.27 13.04-36.44 19.49z"/></g><path fill="#ff2b62" d="M164.34 145.33c1.94-.83 2.86 1.78 2.13 3.23-.62 1.96-2.94 4.89-5.1 3.13-.73-2.45.73-5.28 2.97-6.36z"/><path fill="#ffcb06" d="M154.13 151.06c5.91-2.35 2.23 8.9-2.23 6.15-.56-2.29.46-4.67 2.23-6.15z"/><g fill="#10c7a4"><path d="M421.08 184.41c6.71 3.3 11.44 9.66 14.13 16.5 1.63 4.51 2.6 9.62 1 14.27-1.21 3.74-5.21 5.13-8.33 6.86.46-1.19.94-2.37 1.33-3.57 1.26-2.85 1.04-5.99.07-8.87-2.28-7.68-6.26-15.4-13.35-19.66 1.66-.98 3.35-1.93 4.97-2.98.04-.64.13-1.91.18-2.55zM372.45 213c7.73 3.43 12.99 10.95 15.12 18.97.99 4.3 1.27 9.33-1.63 13-1.81 3.27-5.33 4.77-8.39 6.59 3.96-9.25.24-19.81-6.05-27.05-3.2-4.19-8.09-6.42-12.91-8.17.59-.35 1.78-1.05 2.37-1.4l.69.32c1.82.86 3.65 1.69 5.48 2.54 1.78-.91 3.56-1.81 5.28-2.81l.04-1.99zM165.33 284.16c2.58-.93 1.82 3.56-.34 3.13-1.52-.46-.86-2.7.34-3.13zM164.35 295.94c-.18-1.87.58-3.45 2.43-4.01.18 1.89-.69 3.3-2.43 4.01z"/></g><path fill="#1ca289" d="M402.61 191.87c1.78-2.81 4.91-4.13 7.69-5.71v1.51c1.86.8 3.77 1.47 5.63 2.27 7.09 4.26 11.07 11.98 13.35 19.66 0 2.95-.02 5.91-.07 8.87-.39 1.2-.87 2.38-1.33 3.57l-.22.54c-1.87.94-3.83 1.73-5.89 2.13 1.34-1.61 2.74-3.16 4.13-4.72 2.89-2.78 2.31-7.12 1.63-10.67-1.98-7.7-6.61-15.16-13.9-18.79-1.55-.81-3.31-.32-4.93-.11-2.06.39-4.07.96-6.09 1.45z"/><path fill="#11c19f" d="M408.7 190.42c1.62-.21 3.38-.7 4.93.11 7.29 3.63 11.92 11.09 13.9 18.79.68 3.55 1.26 7.89-1.63 10.67 2.19-8.74-1.69-17.88-7.72-24.17-2.52-2.73-5.9-4.52-9.48-5.4z"/><path fill="#127c68" d="M402.61 191.87c2.02-.49 4.03-1.06 6.09-1.45 3.58.88 6.96 2.67 9.48 5.4 6.03 6.29 9.91 15.43 7.72 24.17-1.39 1.56-2.79 3.11-4.13 4.72-9.98-.82-17.17-9.6-19.85-18.65-1.54-4.64-1.11-9.68.69-14.19m4.69 3.56c-2.24 1.79-2.31 5.09-2.05 7.7.97 5.56 4.25 10.61 8.75 13.97 1.99 1.32 4.73 2.28 6.96.95 2-.79 2.03-3.27 2.19-5.07-.02-6.69-3.8-13.21-9.4-16.8-1.84-1.32-4.36-1.56-6.45-.75z"/><path fill="#0c5b4c" d="M407.3 195.43c2.09-.81 4.61-.57 6.45.75 5.6 3.59 9.38 10.11 9.4 16.8-.16 1.8-.19 4.28-2.19 5.07-2.23 1.33-4.97.37-6.96-.95-4.5-3.36-7.78-8.41-8.75-13.97-.26-2.61-.19-5.91 2.05-7.7z"/><path fill="#7360e1" d="M367.47 203.39c.68 3.37.57 6.8-.17 10.15-.34-3.38-.4-6.79.17-10.15z"/><path fill="#45baa3" d="M429.28 209.6c.97 2.88 1.19 6.02-.07 8.87.05-2.96.07-5.92.07-8.87z"/><path fill="#169b81" d="M351.95 221.98c1.01-3 4.13-4.18 6.64-5.64 4.82 1.75 9.71 3.98 12.91 8.17 6.29 7.24 10.01 17.8 6.05 27.05-2.52 1.69-5.51 3.21-8.62 2.17-6.55-1.91-11.28-7.52-14.43-13.32-2.87-5.56-4.78-12.33-2.55-18.43m6.29 1.32c-4.33 1.97-4.2 7.67-3.06 11.58 1.85 5.87 5.68 12 11.93 13.79 3.29 1.09 6.93-1.4 7.54-4.71 1.22-6.61-2.11-13.32-6.81-17.81-2.43-2.44-6.2-4.29-9.6-2.85z"/><path fill="#3428a0" d="M148.74 262.73c2.95-2.09 6.24-3.66 9.57-5.02-.11.77-.32 2.3-.43 3.07-3.08 2.1-6.36 3.99-9.89 5.21-.63-1.36-.38-2.45.75-3.26z"/><path fill="#f0efff" d="M293.35 262.44c.88-.72 1.72-1.49 2.52-2.3 14.72 2.76 29.58 6.54 42.54 14.31 6.48 3.98 12.74 9.08 15.89 16.2 2.37 5.14 2.36 11.33-.25 16.38-3.88 8.18-11.5 13.74-19.39 17.71-17.36 9.33-37.18 12.74-56.63 14.26-13.31.11-26.72.75-39.92-1.34-18.03-2.25-36.08-7.3-51.37-17.39-3.21-2.15-5.93-4.91-8.74-7.53-.01-1.58-.01-3.15-.01-4.72 4.56 5.82 10.19 10.79 16.72 14.29 11.28 6.07 23.76 9.59 36.33 11.78 26.79 4.73 54.62 3.77 80.97-3.05 12.82-3.81 26.05-8.71 35.36-18.75 4.62-4.63 7.5-11.7 5.43-18.17-2.17-7.82-8.87-13.22-15.43-17.4-13.41-7.87-28.71-12.09-44.02-14.28z"/><path fill="#e8d6ac" d="M234.58 262.5c5.67 2.74 10.97 6.17 16.52 9.14 5.58.51 10.4-3.21 15.86-3.61 3.72.31 7.27 1.67 11 1.96 5.18-2.42 10.11-5.34 15.39-7.55-5.07 10.01-11.49 19.27-16.93 29.08-3.39-1.52-6.84-2.91-10.3-4.28-2.58 2.23-5.13 4.5-7.63 6.83-2.23-.71-4.46-1.46-6.68-2.2-5.59-9.88-11.92-19.34-17.23-29.37z"/><g fill="#302599"><path d="M121.79 268.44c2.38.87 4.76 1.78 7.12 2.71-.56 3.57-.94 7.19-.88 10.82.18 25.02-.12 50.03.04 75.05-.04 1.9-.25 3.79-.48 5.68-2.5-1.78-7.24-2.67-6.6-6.68.02-27.69.01-55.37.01-83.05-.01-1.55.38-3.05.79-4.53zM148.72 345.72c2.65-2.4 6.05-3.73 9.38-4.87 1.59 5.78-5 8-9.17 9.57-2.3-.43-1.11-3.47-.21-4.7z"/></g><g fill="#c9c2f8"><path d="M147.6 294.5c4.64-2.22 8.8-5.55 13.86-6.79-1.35 2.34-4 3.24-6.22 4.5-4.55 2.29-8.89 5.03-13.63 6.93.81-2.72 3.85-3.32 5.99-4.64zM150.03 309.05c3.77-1.86 7.27-4.38 11.4-5.42-1.17 2.21-3.6 3.05-5.65 4.18-3.74 1.83-7.16 4.36-11.22 5.48 1.06-2.23 3.46-3.1 5.47-4.24z"/></g><path fill="#ccc6f6" d="M145.31 303.26c5.39-2.59 10.45-5.83 15.92-8.26-.12 2.34-2.45 3.1-4.19 4.05-5.81 2.78-11.16 6.51-17.22 8.8.69-2.61 3.4-3.42 5.49-4.59z"/><path fill="#45d2b7" d="M165.33 300.1c2.58-.88 1.89 3.54-.32 3.08-1.59-.38-.86-2.66.32-3.08z"/></svg>