<svg xmlns="http://www.w3.org/2000/svg" viewBox="0 0 1014.66 1583"><path fill="#fbfafd" d="M1014.66 0v1583c-21-12.3-41.9-24.7-62.9-36.8q-65.7-38-131.6-75.9-71.55-41.4-143-82.8-73.2-42.45-146.5-84.7l-155.1-89.7q-49.2-28.35-98.4-56.8c-32.8-19-65.5-38.1-98.4-57-41.2-23.7-76.6-54.2-105.5-92a352.65 352.65 0 0 1-49.2-88.1A360.66 360.66 0 0 1 .16 800.4c-.8-24.2 1.5-48.3 5.8-72.2A354.2 354.2 0 0 1 84 562.5a366.48 366.48 0 0 1 52.3-50.4c25.4-20.2 54.2-35.1 82-51.4 31.1-18.2 62.4-36.1 93.7-54.1q43.65-25.2 87.2-50.4l104.4-60.3q48.9-28.35 97.9-56.7l94.2-54.3q43.2-24.9 86.3-50 47.1-27.15 94.1-54.4 43.65-25.2 87.2-50.4c17.16-10 34.26-20.1 51.36-30.1z"/></svg>