<svg width="556pt" height="632" viewBox="0 0 556 474" xmlns="http://www.w3.org/2000/svg"><g fill="#fff"><path d="M169.26 342.25c3.69-6.07 9.54-10.48 15.72-13.78.04 15.52.01 31.05.02 46.57-5.39-3.48-10.79-7.22-14.62-12.47-4.53-5.67-4.88-14.17-1.12-20.32zM237.31 388.55c32.35-18.36 64.71-36.68 97.08-55.01 3.76 4.05 8.04 8.1 9.46 13.64 1.59 5.01.19 10.56-2.76 14.79-5.59 7.67-13.89 12.88-22.49 16.61-21.91 9.14-46 11.88-69.58 11.39-3.95-.01-7.86-.56-11.71-1.42z"/></g><g fill="#f0b11d"><path d="M443.74 71.68c1.27-1.19 2.95.01 4.39.18-1.03 1.07-2.39 1.9-3.05 3.26.02 1.59.27 3.16.48 4.73-.2.08-.58.25-.77.33-.91-.27-1.8-.56-2.68-.87.46-2.5-.5-5.74 1.63-7.63zM428.05 80.98c.74-1.52 2.51-1.43 3.94-1.56-1.65 2.75-2.08 5.89-1.6 9.04-1.09-.14-2.18-.34-3.25-.52.29-2.31.06-4.75.91-6.96z"/></g><g fill="#5234ce"><path d="M454.31 72.55c1.29.37 2.47.99 3.73 1.48-3.55 2.97-7.63 5.16-11.7 7.3-8.64 4.98-17.32 9.9-26 14.81-4.01 2.3-8.47 4.04-11.69 7.46l-.23.23c-1.33-1.01-2.64-2.03-3.96-3.04 2.59-1.46 4.96-3.71 7.98-4.15 2.08-.05 4.15-.36 6.16-.89.03-1.09.06-2.18.08-3.26 2.8-1.56 5.56-3.18 8.46-4.55 1.07.18 2.16.38 3.25.52 1.11-.57 2.23-1.15 3.33-1.74l-.08-2.67c2.81-1.59 5.62-3.21 8.47-4.74.88.31 1.77.6 2.68.87.19-.08.57-.25.77-.33.78-.38 2.34-1.16 3.13-1.55-.06-.91-.11-1.82-.17-2.73 1.9-1.04 3.74-2.26 5.79-3.02zM314.23 92.22c3.8-2.41 8.54-.87 11.79 1.74 1.91 1.16 1.27 3.71 1.59 5.59-38.72 21.57-77.14 43.67-115.77 65.39-3.05 1.78-6.47 3.21-8.77 5.99.3 1.25.74 2.46 1.23 3.64.25.29.74.86.98 1.15 5.07 1.26 10.12-.5 14.35-3.25 37.74-21.56 75.68-42.8 113.42-64.37 4.04-2.42 8.77-6.27 13.69-3.8 2.33 1.15 5.95 2.58 5.21 5.86-3.35 2.73-7.19 4.76-10.94 6.87-36.17 20.46-72.34 40.91-108.46 61.45-5.76 3.6-12.15 6.24-18.99 6.7.21 2.6.41 5.21.47 7.83.03 68.33-.01 136.65.02 204.97-3.79.03-7.58.03-11.37-.04l.01-.4c.26-70.65-.01-141.31.09-211.96-6.92-1.51-13.96-4.44-17.85-10.71.14-2.14.06-4.32.59-6.41.98-3.02 3.46-5.27 6.14-6.83 40.87-23.12 81.7-46.31 122.57-69.41zM507.84 158.86c2.81-2.16 5.74.62 8.1 2.08-10.78 5.69-21.09 12.22-31.61 18.38-19.95 11.73-39.85 23.55-59.78 35.34-4.1 2.41-8.63 4.45-11.6 8.33-1.84-1.14-3.67-2.28-5.5-3.42 2.45-3.48 6.46-5.13 9.97-7.28 30.14-17.8 60.27-35.63 90.42-53.43zM78.56 372.57c3.54-2.26 6.86-5.02 10.79-6.55 2.43 1.3 4.75 2.77 7.07 4.23-7.76 4.35-15.01 9.59-21.63 15.53-2.23 1.96-3.98 4.41-5.16 7.13-2.58-1.43-5.15-2.88-7.7-4.35 3.85-6.83 10.4-11.49 16.63-15.99z"/></g><g fill="#ffcb05"><path d="M445.08 75.12c.66-1.36 2.02-2.19 3.05-3.26.1.93.29 2.78.39 3.71.06.91.11 1.82.17 2.73-.79.39-2.35 1.17-3.13 1.55-.21-1.57-.46-3.14-.48-4.73zM459.46 78.93c1.17.66 2.37 1.28 3.48 2.06.7 2.64-1.78 4.12-3.55 5.44.01-2.5.08-5 .07-7.5zM431.99 79.42c.97 1.37 1.88 2.86 1.65 4.63l.08 2.67c-1.1.59-2.22 1.17-3.33 1.74-.48-3.15-.05-6.29 1.6-9.04zM412.44 96.64c.35-2.89-.89-7.28 2.57-8.67 1.27.37 2.48.92 3.71 1.44l-.04 3.08c-.02 1.08-.05 2.17-.08 3.26-2.01.53-4.08.84-6.16.89zM459.42 95.86c1.18.69 2.4 1.32 3.51 2.14.72 2.6-1.85 4.04-3.53 5.39-.01-2.51.03-5.02.02-7.53zM406.2 111.82c0 1.51 0 3.02.01 4.53-.78.43-1.56.86-2.33 1.29-.62.34-1.85 1.02-2.47 1.35-1.75-3.78 2.27-5.46 4.79-7.17zM459.41 112.92c1.32.65 2.63 1.32 3.96 1.99-.41 2.41-1.97 4.17-3.97 5.44 0-2.48.02-4.96.01-7.43zM406.21 128.89c-.01 1.46-.01 2.92-.01 4.39-.77.44-1.54.88-2.31 1.31-.62.35-1.87 1.04-2.49 1.39-.14-1.19-.21-2.38-.23-3.57 1.53-1.37 3.32-2.41 5.04-3.52zM441.28 142.58c2.52-1.43 5.06-2.82 7.59-4.24-.51 1.94-.39 5.01-2.84 5.6-1.63-.28-3.18-.88-4.75-1.36zM406.17 145.79c.02 1.51.04 3.02.07 4.53-.79.4-1.58.79-2.37 1.18-.94.37-2.83 1.11-3.78 1.49.58-3.47 3.07-5.73 6.08-7.2zM427.06 150.76c2.28-1.27 4.53-2.6 6.8-3.89-.35 2.13-.51 4.8-2.81 5.77-1.39-.51-2.68-1.23-3.99-1.88zM412.24 159.11c2.22-1.31 4.48-2.55 6.73-3.82-.37 2.14-.5 5.05-3.02 5.8-1.31-.51-2.51-1.28-3.71-1.98z"/></g><g fill="#5840e2"><path d="M458.04 74.03c1.19 1.37 1.5 3.13 1.42 4.9.01 2.5-.06 5-.07 7.5-.03 3.14 0 6.29.03 9.43.01 2.51-.03 5.02-.02 7.53-.03 3.17-.02 6.35.01 9.53.01 2.47-.01 4.95-.01 7.43-.03 3.95-.08 7.9-.05 11.86-3.4 2.19-6.96 4.14-10.48 6.13-2.53 1.42-5.07 2.81-7.59 4.24-2.47 1.45-4.95 2.86-7.42 4.29-2.27 1.29-4.52 2.62-6.8 3.89a373.24 373.24 0 0 0-8.09 4.53c-2.25 1.27-4.51 2.51-6.73 3.82-1.21.73-2.32 1.63-3.39 2.54-.56-19.34-.29-38.71-.2-58.05 3.22-3.42 7.68-5.16 11.69-7.46 8.68-4.91 17.36-9.83 26-14.81 4.07-2.14 8.15-4.33 11.7-7.3m-4.5 9.62c-13.32 7.55-26.77 14.94-39.93 22.75-.48 15.15-.1 30.35-.18 45.51-.33 1.81 2.13 1.17 2.95.5 11.88-6.75 23.75-13.55 35.68-20.21 1.58-1 3.88-1.9 3.31-4.22-.05-14.36.19-28.72.02-43.08.01-1.3-.6-1.72-1.85-1.25z"/><path d="M420.95 109.31c9.38-4.46 17.81-10.74 27.4-14.72.35 10.51 0 21.03.2 31.54-9.13 5.57-18.59 10.57-27.82 15.97.57-10.9.15-21.83.23-32.75l-.01-.04zM341.01 117.03c3.75-2.11 7.59-4.14 10.94-6.87.12 54.58.02 109.17.05 163.76-.18 16.33.35 32.7-.25 49.01-4.1 4.1-10.03 5.97-14.85 9.19-.84.47-1.68.95-2.51 1.42-32.37 18.33-64.73 36.65-97.08 55.01-1.24.71-2.47 1.41-3.71 2.12-5.95 3.76-12.46 6.68-19.55 7.31-.03-68.32.01-136.64-.02-204.97-.06-2.62-.26-5.23-.47-7.83 6.84-.46 13.23-3.1 18.99-6.7 36.12-20.54 72.29-40.99 108.46-61.45m-42.03 96.1c2.89 2.17 5.23 4.95 7 8.1 3.13-1.2 6.26-2.4 9.38-3.64-4.11-4.5-10.59-5.78-16.38-4.46m-7.75 3.61c-.06 3.94.01 7.88.18 11.82 3.25-1.75 6.54-3.41 9.87-4.99-1.87-3.93-5.66-6.66-10.05-6.83m-13.76 19.94c3.33-1.78 6.56-3.77 9.79-5.74.09-3.85.1-7.71-.1-11.55-4.51 4.92-7.62 10.98-9.69 17.29m29.84-11.3c1.23 4.48 1.8 9.09 2.04 13.72 3.88-2.11 7.7-4.31 11.58-6.42-.45-3.83-.79-7.92-3.01-11.22-3.72.72-7.16 2.4-10.61 3.92m-43.63 21.06c3.77-2.73 9.01-4.66 10.24-9.64 1.36-4.15 3.35-8.04 5.17-12-6.69 5.9-11.82 13.5-15.41 21.64m39.15-19.36c-3.89 1.97-7.76 3.96-11.59 6.03.02 5.38-.01 10.75.02 16.13 4.86-2.46 9.58-5.2 14.24-8.01-.41-4.79-.83-9.65-2.67-14.15m-27.32 15.59c-1.31 5.59-2.13 11.29-2.32 17.03 4.63-2.7 9.28-5.38 14.01-7.9.18-5.44.15-10.89.04-16.34-4.03 2.2-7.9 4.68-11.73 7.21m33.87.88c-.3 5.34-1 10.65-1.82 15.94 3.5-2.48 7.23-4.74 10.2-7.86 2.25-4.48 2.57-9.66 3.2-14.56-3.89 2.11-7.73 4.31-11.58 6.48m-48.57 10.26c-2.15 4.48-2.61 9.56-3.11 14.45 3.88-1.99 7.65-4.18 11.46-6.3.32-5.42 1.08-10.8 1.93-16.16-3.47 2.6-7.25 4.88-10.28 8.01m30.59.35c-.44 5.29-.03 10.62-.14 15.92 4.03-2.25 7.91-4.75 11.79-7.26 1.31-5.54 2.18-11.19 2.26-16.9-4.59 2.81-9.76 4.85-13.91 8.24m-18.27 9.96c.29 4.81.85 9.65 2.47 14.22 4.01-1.9 8-3.86 11.8-6.16-.14-5.31-.06-10.62-.13-15.93-4.83 2.41-9.45 5.2-14.14 7.87m32.74 1.68c-2.09 5.15-3.98 10.4-6.77 15.24 6.94-6.04 12.18-13.88 15.98-22.21-3.16 2.17-6.68 4.04-9.21 6.97m-48.03 7.18c-.21 3.87 1.21 7.56 2.45 11.16 3.62-1.06 7.19-2.3 10.71-3.69-.72-4.66-1.51-9.31-1.85-14.02-3.78 2.16-7.81 3.94-11.31 6.55m33.48 1.5c-.1 3.92-.12 7.85-.01 11.77 4.55-5.02 7.74-11.16 9.85-17.57-3.33 1.86-6.57 3.86-9.84 5.8m-14.17 7.61c2.22 3.66 5.76 6.39 10.14 6.76.06-3.98.03-7.96-.04-11.93-3.38 1.71-6.75 3.43-10.1 5.17m-13.95 5.87c4.13 4.39 10.32 5.37 16.07 4.73-2.49-2.62-4.81-5.4-6.66-8.52-3.15 1.23-6.29 2.48-9.41 3.79zM515.94 160.94c1.32.55 2.92 1.4 2.93 3.06.34 3.61.1 7.25.05 10.88-35.73 20.91-71.3 42.08-106.94 63.13-.09-5.02-.14-10.1.97-15.02 2.97-3.88 7.5-5.92 11.6-8.33 19.93-11.79 39.83-23.61 59.78-35.34 10.52-6.16 20.83-12.69 31.61-18.38m-22.31 19.67c-2.92 1.79-6.55 3.11-7.9 6.55 3.87-.65 7-3.13 10.31-5.04 3.32-2.04 6.76-3.89 10.08-5.94 1.64-.78 2.43-2.38 2.87-4.08-5.47 2.17-10.22 5.72-15.36 8.51m-25.76 15.24c-14.27 8.45-28.57 16.85-42.82 25.33-1.63.65-1.78 2.31-1.85 3.83 17.08-9.71 33.83-20.01 50.85-29.83a9.867 9.867 0 0 0 4.44-4.52c-4.02.56-7.17 3.29-10.62 5.19zM96.42 370.25l.42-.22c.09 11.35-.01 22.71.06 34.07 8.97-5.17 17.85-10.52 26.85-15.64-.32 9.07-1.55 18.37-5.83 26.51-4.86 9.74-12.88 17.3-20.7 24.64-.87-11.74-.24-23.53-.36-35.29-8.88 4.91-17.46 10.35-26.36 15.22-1.13-8.83-.8-17.75-.87-26.63 1.18-2.72 2.93-5.17 5.16-7.13 6.62-5.94 13.87-11.18 21.63-15.53z"/></g><g fill="#c2b9fa"><path d="M453.54 83.65c1.25-.47 1.86-.05 1.85 1.25.17 14.36-.07 28.72-.02 43.08.57 2.32-1.73 3.22-3.31 4.22-11.93 6.66-23.8 13.46-35.68 20.21-.82.67-3.28 1.31-2.95-.5.08-15.16-.3-30.36.18-45.51 13.16-7.81 26.61-15.2 39.93-22.75m-32.59 25.66l.01.04c-1.11 1.68-.98 3.72-1 5.64.06 6.99.07 13.99-.01 20.99-.06 2.07.16 4.14.78 6.12 9.23-5.4 18.69-10.4 27.82-15.97-.2-10.51.15-21.03-.2-31.54-9.59 3.98-18.02 10.26-27.4 14.72zM204.3 174.57c41.15-23 82.06-46.44 123.15-69.56 1.86 1.03 3.73 2.06 5.6 3.09-37.74 21.57-75.68 42.81-113.42 64.37-4.23 2.75-9.28 4.51-14.35 3.25-.24-.29-.73-.86-.98-1.15zM493.63 180.61c5.14-2.79 9.89-6.34 15.36-8.51-.44 1.7-1.23 3.3-2.87 4.08-3.32 2.05-6.76 3.9-10.08 5.94-3.31 1.91-6.44 4.39-10.31 5.04 1.35-3.44 4.98-4.76 7.9-6.55zM467.87 195.85c3.45-1.9 6.6-4.63 10.62-5.19a9.867 9.867 0 0 1-4.44 4.52c-17.02 9.82-33.77 20.12-50.85 29.83.07-1.52.22-3.18 1.85-3.83 14.25-8.48 28.55-16.88 42.82-25.33zM506.4 201.05c-.11-1.35 1.44-1.69 2.26-2.37.2 5.79.01 11.58.12 17.37-.03 2.63.18 5.38-.86 7.87-1.95-.29-1.41-2.46-1.6-3.85.05-6.34-.16-12.69.08-19.02zM494.79 210.97c.15-2-.24-4.68 2.17-5.47.39 7.16.29 14.34.26 21.51.3 1.71-.96 2.75-2.15 3.7-.37-6.58-.26-13.16-.28-19.74zM488.76 215.02c.16-2.09-.35-4.92 1.97-5.97.91 5.59.25 11.27.51 16.9-.12 2.92.65 6.59-2.16 8.53-.56-6.47-.21-12.97-.32-19.46zM298.98 213.13c5.79-1.32 12.27-.04 16.38 4.46-3.12 1.24-6.25 2.44-9.38 3.64-1.77-3.15-4.11-5.93-7-8.1zM291.23 216.74c4.39.17 8.18 2.9 10.05 6.83-3.33 1.58-6.62 3.24-9.87 4.99-.17-3.94-.24-7.88-.18-11.82zM277.47 236.68c2.07-6.31 5.18-12.37 9.69-17.29.2 3.84.19 7.7.1 11.55-3.23 1.97-6.46 3.96-9.79 5.74zM108.06 220.91c4.66 2.89 9.05 6.27 13.08 9.99 1.81 1.61.28 4.04-1.47 4.9-3.12 2.05-6.42 3.82-9.78 5.44-.44-6.78.57-13.82-1.83-20.33zM307.31 225.38c3.45-1.52 6.89-3.2 10.61-3.92 2.22 3.3 2.56 7.39 3.01 11.22-3.88 2.11-7.7 4.31-11.58 6.42-.24-4.63-.81-9.24-2.04-13.72zM263.68 246.44c3.59-8.14 8.72-15.74 15.41-21.64-1.82 3.96-3.81 7.85-5.17 12-1.23 4.98-6.47 6.91-10.24 9.64zM302.83 227.08c1.84 4.5 2.26 9.36 2.67 14.15-4.66 2.81-9.38 5.55-14.24 8.01-.03-5.38 0-10.75-.02-16.13 3.83-2.07 7.7-4.06 11.59-6.03zM406.07 234.71c1.97 1.09 3.94 2.19 5.91 3.3.01 12.65-.02 25.31.02 37.97.12 4.9.11 9.81-.49 14.69-1.72-1.25-4.08-1.98-5.18-3.87-.6-2.86-.39-5.81-.4-8.7.2-14.46-.06-28.93.14-43.39zM275.51 242.67c3.83-2.53 7.7-5.01 11.73-7.21.11 5.45.14 10.9-.04 16.34-4.73 2.52-9.38 5.2-14.01 7.9.19-5.74 1.01-11.44 2.32-17.03zM309.38 243.55c3.85-2.17 7.69-4.37 11.58-6.48-.63 4.9-.95 10.08-3.2 14.56-2.97 3.12-6.7 5.38-10.2 7.86.82-5.29 1.52-10.6 1.82-15.94zM260.81 253.81c3.03-3.13 6.81-5.41 10.28-8.01-.85 5.36-1.61 10.74-1.93 16.16-3.81 2.12-7.58 4.31-11.46 6.3.5-4.89.96-9.97 3.11-14.45zM291.4 254.16c4.15-3.39 9.32-5.43 13.91-8.24-.08 5.71-.95 11.36-2.26 16.9-3.88 2.51-7.76 5.01-11.79 7.26.11-5.3-.3-10.63.14-15.92zM273.13 264.12c4.69-2.67 9.31-5.46 14.14-7.87.07 5.31-.01 10.62.13 15.93-3.8 2.3-7.79 4.26-11.8 6.16-1.62-4.57-2.18-9.41-2.47-14.22zM305.87 265.8c2.53-2.93 6.05-4.8 9.21-6.97-3.8 8.33-9.04 16.17-15.98 22.21 2.79-4.84 4.68-10.09 6.77-15.24zM257.84 272.98c3.5-2.61 7.53-4.39 11.31-6.55.34 4.71 1.13 9.36 1.85 14.02-3.52 1.39-7.09 2.63-10.71 3.69-1.24-3.6-2.66-7.29-2.45-11.16zM291.32 274.48c3.27-1.94 6.51-3.94 9.84-5.8-2.11 6.41-5.3 12.55-9.85 17.57-.11-3.92-.09-7.85.01-11.77zM277.15 282.09c3.35-1.74 6.72-3.46 10.1-5.17.07 3.97.1 7.95.04 11.93-4.38-.37-7.92-3.1-10.14-6.76zM263.2 287.96c3.12-1.31 6.26-2.56 9.41-3.79 1.85 3.12 4.17 5.9 6.66 8.52-5.75.64-11.94-.34-16.07-4.73zM104.99 357.99c2.89-1.07 5.92-2.14 9.05-1.93 2.41.58 4.38 2.19 6.46 3.45-8.2 2.78-16.08 6.35-23.66 10.52l-.42.22c-2.32-1.46-4.64-2.93-7.07-4.23 4.89-3.26 10.2-5.84 15.64-8.03zM62.17 415.47c2.56 1.43 5.07 2.94 7.71 4.22.56 6.71 1.06 13.8 4.94 19.57-3.55-1.97-7.72-3.65-9.65-7.48-2.6-5-2.85-10.79-3-16.31z"/></g><g fill="#402cb5"><path d="M211.84 164.94c38.63-21.72 77.05-43.82 115.77-65.39-.08 1.82-.12 3.64-.16 5.46-41.09 23.12-82 46.56-123.15 69.56-.49-1.18-.93-2.39-1.23-3.64 2.3-2.78 5.72-4.21 8.77-5.99zM403.95 100.41l.51.38c1.32 1.01 2.63 2.03 3.96 3.04-.09 19 .39 38.02-.24 57-1.45-.88-2.88-1.75-4.32-2.62.01-2.24.02-4.48.01-6.71.79-.39 1.58-.78 2.37-1.18-.03-1.51-.05-3.02-.07-4.53-.57-.35-1.71-1.07-2.28-1.43 0-3.25-.01-6.51 0-9.77.77-.43 1.54-.87 2.31-1.31 0-1.47 0-2.93.01-4.39-.58-.38-1.73-1.14-2.3-1.51-.02-3.25-.02-6.49-.03-9.74.77-.43 1.55-.86 2.33-1.29-.01-1.51-.01-3.02-.01-4.53-.58-.35-1.73-1.06-2.31-1.41-.01-3.34 0-6.67.06-10zM184.93 174.87c3.89 6.27 10.93 9.2 17.85 10.71-.1 70.65.17 141.31-.09 211.96-5.94-1.15-12.17-3.39-15.91-8.4-2.59-3.17-1.61-7.47-1.79-11.23 0-.72.01-2.15.01-2.87-.01-15.52.02-31.05-.02-46.57v-2.76c0-50.28.1-100.56-.05-150.84zM407.06 219.33l.39.24c1.83 1.14 3.66 2.28 5.5 3.42-1.11 4.92-1.06 10-.97 15.02-1.97-1.11-3.94-2.21-5.91-3.3.04-5.13-.73-10.43.99-15.38zM61.93 388.56c2.55 1.47 5.12 2.92 7.7 4.35.07 8.88-.26 17.8.87 26.63-.15.04-.47.12-.62.15-2.64-1.28-5.15-2.79-7.71-4.22-.16-8.97.01-17.94-.24-26.91z"/></g><path fill="#4935bc" d="M419.96 114.99c.02-1.92-.11-3.96 1-5.64-.08 10.92.34 21.85-.23 32.75-.62-1.98-.84-4.05-.78-6.12.08-7 .07-14 .01-20.99z"/><path fill="#f4bf36" d="M397.6 117.09c.29-3.58 3.55-5.13 6.29-6.68.58.35 1.73 1.06 2.31 1.41-2.52 1.71-6.54 3.39-4.79 7.17l.05.31c-1.28-.75-2.57-1.48-3.86-2.21z"/><path fill="#f3be33" d="M397.6 133.88c.38-3.48 3.6-5 6.31-6.5.57.37 1.72 1.13 2.3 1.51-1.72 1.11-3.51 2.15-5.04 3.52.02 1.19.09 2.38.23 3.57l.03.29c-1.28-.8-2.56-1.6-3.83-2.39z"/><path fill="#f2ba2f" d="M398.09 148.98c.95-2.45 3.79-3.26 5.8-4.62.57.36 1.71 1.08 2.28 1.43-3.01 1.47-5.5 3.73-6.08 7.2-.85-1.2-2.75-2.29-2-4.01z"/><g fill="#e3e1ff"><path d="M411.98 238.01c35.64-21.05 71.21-42.22 106.94-63.13.25 15.38-.05 30.77.13 46.16.34 4.69-.57 10.22-4.98 12.82-28.55 16.86-57.08 33.77-85.65 50.61-3.94 2.32-7.71 4.95-11.85 6.9-1.64.82-3.44.07-5.12-.12l.06-.58c.6-4.88.61-9.79.49-14.69-.04-12.66-.01-25.32-.02-37.97m94.42-36.96c-.24 6.33-.03 12.68-.08 19.02.19 1.39-.35 3.56 1.6 3.85 1.04-2.49.83-5.24.86-7.87-.11-5.79.08-11.58-.12-17.37-.82.68-2.37 1.02-2.26 2.37m-6.43 8.89c.2 5.65-.3 11.33.29 16.97l1.62-.08c.98-8.06.62-16.3.14-24.4-2.57 1.65-1.93 4.9-2.05 7.51m-5.18 1.03c.02 6.58-.09 13.16.28 19.74 1.19-.95 2.45-1.99 2.15-3.7.03-7.17.13-14.35-.26-21.51-2.41.79-2.02 3.47-2.17 5.47m-6.03 4.05c.11 6.49-.24 12.99.32 19.46 2.81-1.94 2.04-5.61 2.16-8.53-.26-5.63.4-11.31-.51-16.9-2.32 1.05-1.81 3.88-1.97 5.97m-11.82 5.01c.01 7.14-.19 14.3.21 21.43 2.59-1.13 2.16-4.11 2.26-6.43-.23-6.44.4-12.94-.59-19.34-1.01 1.26-2.11 2.6-1.88 4.34m-45.79 24.08c-3.07 2.01-7.27 3.26-8.45 7.14 2.08-.62 4.09-1.47 5.95-2.61 7.48-4.54 15.14-8.79 22.58-13.41 1.41-.7 1.59-2.39 2.22-3.65-7.87 3.34-14.82 8.44-22.3 12.53m.65 9.64c-3.27 2.17-7.97 3.23-9.12 7.49 2.09-.63 4.13-1.46 6-2.62 7.43-4.6 15.1-8.82 22.54-13.4 1.42-.69 1.61-2.38 2.21-3.65-7.73 3.03-14.37 8.21-21.63 12.18m-.8 10.29c-3.06 1.99-7.27 3.24-8.32 7.18 1.85-.61 3.69-1.3 5.39-2.28 7.71-4.55 15.45-9.07 23.1-13.71 1.45-.68 1.68-2.36 2.29-3.66-7.98 3.17-14.97 8.33-22.46 12.47zM84.3 223.24c3.1-1.77 6.13-3.88 9.7-4.55 4.03-.69 7.97 2.35 9.22 6.07 1.15 4.54-.35 9.38.99 13.86 1.41 1.29 3.15 2.14 4.86 2.97.21-.09.62-.26.82-.35 3.36-1.62 6.66-3.39 9.78-5.44.27 18.77.19 37.54.12 56.31.2 4.15-2.14 8.01-5.74 9.99-17.36 10-34.82 19.83-52.12 29.92-1.97 1.12-3.99 2.14-6.02 3.15-.3-3.05-.53-6.1-.54-9.15.12-26.35-.01-52.69.06-79.04.09-2.39.19-4.98 1.62-7.01 1.44-1.9 3.56-3.12 5.57-4.33 7.25-4.09 14.5-8.2 21.68-12.4m12.3 26.41c-7.53 4.49-15.19 8.74-22.77 13.12-2.92 1.71-6.07 3.1-8.62 5.36.13.28.38.83.51 1.11 8.73-4.14 16.77-9.59 25.27-14.18 4.12-2.65 9.14-4.19 12.27-8.16-2.35.57-4.61 1.47-6.66 2.75m.16 9.13c-9.51 5.44-18.92 11.05-28.5 16.36-1.64.76-2.73 2.19-3.55 3.75 2.1-.88 4.16-1.87 6.14-2.99 10.79-6.28 21.58-12.56 32.46-18.69 1.34-.69 2.21-1.94 2.93-3.22-3.37 1.14-6.44 2.97-9.48 4.79m-21.78 22.3c-3.57 2.13-7.66 3.67-10.31 7.04 4.34-.92 7.92-3.62 11.72-5.74 5.95-3.38 11.89-6.77 17.85-10.14 1.51-.73 2.46-2.11 3.27-3.52-7.92 3.32-14.97 8.35-22.53 12.36m28.81-8.14l-1.2 1.8c-.53.19-1.58.59-2.1.78-1.91 2.93-3.64 5.97-5.05 9.17l.21 2.11c-.52 1.97.07 3.91.61 5.8.86.55 1.72 1.1 2.58 1.66.81-.08 2.43-.22 3.24-.29 1.3-.73 2.64-1.41 4-2.03.45-.82.9-1.63 1.36-2.44.52-.23 1.56-.69 2.08-.93.15-.6.44-1.79.58-2.39.93-1.52 1.77-3.12 2.56-4.7-1.71.29-2.85 1.44-3.63 2.92.09-2.13.58-4.24.52-6.38-.49-2.31-3.32-2.83-5.14-1.76-3.47 1.95-5.84 5.78-6.15 9.74-.13 1.82.61 4.26 2.76 4.45 3.78.13 5.78-3.61 8.28-5.8-1.67 3.25-4.35 6.7-8.27 7.05-2.11.18-3.59-1.89-3.68-3.81-.26-4.31 1.94-8.49 5.07-11.32 1.74-1.49 4.41-2.96 6.6-1.47 2.04 1.33 1.48 4.16 1.48 6.18.54-.11 1.62-.34 2.16-.46.01-1.85-.28-3.69-.21-5.55-.63-.92-1.25-1.84-1.87-2.75-1.1.01-2.16-.2-3.04-.91-1.18.63-2.43 1.07-3.75 1.33zM120.5 359.51l.6-.24c3.81 1.82 2.88 6.28 2.9 9.74-.2 6.48-.14 12.96-.25 19.45-9 5.12-17.88 10.47-26.85 15.64-.07-11.36.03-22.72-.06-34.07 7.58-4.17 15.46-7.74 23.66-10.52zM70.5 419.54c8.9-4.87 17.48-10.31 26.36-15.22.12 11.76-.51 23.55.36 35.29-6.99 2.54-15.94 4.3-22.4-.35-3.88-5.77-4.38-12.86-4.94-19.57.15-.03.47-.11.62-.15z"/></g><path fill="#c3bbfa" d="M499.97 209.94c.12-2.61-.52-5.86 2.05-7.51.48 8.1.84 16.34-.14 24.4l-1.62.08c-.59-5.64-.09-11.32-.29-16.97z"/><path fill="#9c97e8" d="M89.32 214.4c6.82-3.81 14.43 1.2 18.74 6.51 2.4 6.51 1.39 13.55 1.83 20.33-.2.09-.61.26-.82.35-1.71-.83-3.45-1.68-4.86-2.97-1.34-4.48.16-9.32-.99-13.86-1.25-3.72-5.19-6.76-9.22-6.07-3.57.67-6.6 2.78-9.7 4.55-7.18 4.2-14.43 8.31-21.68 12.4-2.01 1.21-4.13 2.43-5.57 4.33-1.43 2.03-1.53 4.62-1.62 7.01-.07 26.35.06 52.69-.06 79.04.01 3.05.24 6.1.54 9.15-1.9-1.4-4.22-2.37-5.7-4.25-.27-1.64-.24-3.31-.25-4.97.08-27.98-.01-55.96.07-83.94-.02-4.18 3.25-7.4 6.75-9.16 10.9-6.06 21.57-12.53 32.54-18.45z"/><path fill="#c3bafa" d="M476.94 220.03c-.23-1.74.87-3.08 1.88-4.34.99 6.4.36 12.9.59 19.34-.1 2.32.33 5.3-2.26 6.43-.4-7.13-.2-14.29-.21-21.43z"/><g fill="#c5bdfa"><path d="M431.15 244.11c7.48-4.09 14.43-9.19 22.3-12.53-.63 1.26-.81 2.95-2.22 3.65-7.44 4.62-15.1 8.87-22.58 13.41-1.86 1.14-3.87 1.99-5.95 2.61 1.18-3.88 5.38-5.13 8.45-7.14zM431.8 253.75c7.26-3.97 13.9-9.15 21.63-12.18-.6 1.27-.79 2.96-2.21 3.65-7.44 4.58-15.11 8.8-22.54 13.4-1.87 1.16-3.91 1.99-6 2.62 1.15-4.26 5.85-5.32 9.12-7.49z"/></g><g fill="#c8c1fb"><path d="M96.6 249.65c2.05-1.28 4.31-2.18 6.66-2.75-3.13 3.97-8.15 5.51-12.27 8.16-8.5 4.59-16.54 10.04-25.27 14.18-.13-.28-.38-.83-.51-1.11 2.55-2.26 5.7-3.65 8.62-5.36 7.58-4.38 15.24-8.63 22.77-13.12zM96.76 258.78c3.04-1.82 6.11-3.65 9.48-4.79-.72 1.28-1.59 2.53-2.93 3.22-10.88 6.13-21.67 12.41-32.46 18.69a57.992 57.992 0 0 1-6.14 2.99c.82-1.56 1.91-2.99 3.55-3.75 9.58-5.31 18.99-10.92 28.5-16.36zM74.98 281.08c7.56-4.01 14.61-9.04 22.53-12.36-.81 1.41-1.76 2.79-3.27 3.52-5.96 3.37-11.9 6.76-17.85 10.14-3.8 2.12-7.38 4.82-11.72 5.74 2.65-3.37 6.74-4.91 10.31-7.04z"/></g><path fill="#c6befb" d="M431 264.04c7.49-4.14 14.48-9.3 22.46-12.47-.61 1.3-.84 2.98-2.29 3.66-7.65 4.64-15.39 9.16-23.1 13.71-1.7.98-3.54 1.67-5.39 2.28 1.05-3.94 5.26-5.19 8.32-7.18z"/><path fill="#2192fc" d="M103.79 272.94c1.32-.26 2.57-.7 3.75-1.33.88.71 1.94.92 3.04.91.62.91 1.24 1.83 1.87 2.75-.07 1.86.22 3.7.21 5.55-.54.12-1.62.35-2.16.46 0-2.02.56-4.85-1.48-6.18-2.19-1.49-4.86-.02-6.6 1.47-3.13 2.83-5.33 7.01-5.07 11.32.09 1.92 1.57 3.99 3.68 3.81 3.92-.35 6.6-3.8 8.27-7.05-2.5 2.19-4.5 5.93-8.28 5.8-2.15-.19-2.89-2.63-2.76-4.45.31-3.96 2.68-7.79 6.15-9.74 1.82-1.07 4.65-.55 5.14 1.76.06 2.14-.43 4.25-.52 6.38.78-1.48 1.92-2.63 3.63-2.92-.79 1.58-1.63 3.18-2.56 4.7-.14.6-.43 1.79-.58 2.39-.52.24-1.56.7-2.08.93-.46.81-.91 1.62-1.36 2.44-1.36.62-2.7 1.3-4 2.03-.81.07-2.43.21-3.24.29-.86-.56-1.72-1.11-2.58-1.66-.54-1.89-1.13-3.83-.61-5.8l-.21-2.11c1.41-3.2 3.14-6.24 5.05-9.17.52-.19 1.57-.59 2.1-.78l1.2-1.8z"/><g fill="#f0efff"><path d="M171.77 334.78c3.94-3.62 8.21-7.04 13.21-9.07v2.76c-6.18 3.3-12.03 7.71-15.72 13.78-3.76 6.15-3.41 14.65 1.12 20.32 3.83 5.25 9.23 8.99 14.62 12.47 0 .72-.01 2.15-.01 2.87-8.49-4.78-17.17-11.09-20.15-20.84-2.74-8.04 1.24-16.62 6.93-22.29zM334.39 333.54c.83-.47 1.67-.95 2.51-1.42 4.52 5.13 9.62 10.7 10.09 17.88.67 9.43-5.83 17.73-13.19 22.86-16.15 11.04-35.62 15.94-54.82 18.18-9.58 1.48-19.3 1.05-28.95 1.08-5.49-.24-11.16.44-16.43-1.45 1.24-.71 2.47-1.41 3.71-2.12 3.85.86 7.76 1.41 11.71 1.42 23.58.49 47.67-2.25 69.58-11.39 8.6-3.73 16.9-8.94 22.49-16.61 2.95-4.23 4.35-9.78 2.76-14.79-1.42-5.54-5.7-9.59-9.46-13.64z"/></g></svg>