<svg width="538pt" height="530pt" viewBox="0 0 538 530" xmlns="http://www.w3.org/2000/svg"><g fill="#fff"><path d="M286.84 161.88c4.17-2.46 8.32-4.99 12.77-6.94.34 17.29-.64 34.62.5 51.88-7.94 3.82-15.07 9.14-21.52 15.1-10.38-.18-19.52 6.02-26.39 13.28-9.86 10.59-16.7 24.32-17.87 38.85-2.27 1.39-4.66 2.56-7.01 3.8-.02-23.95.05-47.9-.02-71.85.02-3.22-.27-6.47.21-9.67 1.88-2.19 4.72-3.22 7.14-4.68 17.42-9.87 34.76-19.9 52.19-29.77m-19.62 23.43c-6.01 1.95-10.6 6.76-13.97 11.93-3.72 5.84-6.22 12.87-5.19 19.86.49 3.34 2.54 6.82 5.99 7.74 4.89 1.33 9.74-1.37 13.38-4.43 6.48-5.75 11.12-13.83 11.98-22.53.31-3.66-.14-7.75-2.68-10.61-2.33-2.62-6.32-3.09-9.51-1.96zM161.62 353.08c-.78-8.41 5.24-15.37 11.37-20.3.02 12.49.02 24.97 0 37.46-5.31-4.44-10.89-9.79-11.37-17.16zM314.91 344.11c5.38-2.96 10.64-6.15 16.16-8.86 5.13 4.36 9.27 10.85 8.5 17.84-.69 9.11-8.48 15.41-15.47 20.19-18.34 11.21-40.13 15.05-61.28 16.54-5.56.96-11.2.42-16.8.56-3.03-.03-6.27.41-9.04-1.15 3.85-3.13 8.37-5.19 12.61-7.69 21.76-12.51 43.63-24.81 65.32-37.43z"/></g><g fill="#c2b9fa"><path d="M424.96 69.91c1.93-1.07 3.76-2.52 5.98-2.91 2.24.87 4.24 2.25 6.3 3.48-13.38 7.9-26.77 15.78-40.23 23.54-2 1.11-3.57 2.81-4.68 4.79-.94-2.93-4.3-3.75-6.63-5.25 1.51-1.12 2.98-2.32 4.59-3.31 11.58-6.74 23.14-13.52 34.67-20.34zM439.88 87.29c6.62-3.39 12.75-7.63 19.41-10.95 1.11.92 1.97 2.07 1.71 3.61-.01 10.36.05 20.73-.03 31.09.2 2.47-1.56 4.31-2.87 6.17.24 3.58.4 7.15.44 10.74-2.33-1.27-4.76-2.34-7.16-3.46-3.12-.95-6.28.51-8.96 1.99-7.58 4.39-15.04 8.99-22.68 13.25-1.28.96-2.64.28-3.86-.3.28-4.64.21-9.3-.29-13.93 5.91-3.92 12.21-7.18 18.45-10.55 2.3-1.26 4.94-2.96 5-5.91.7-9.3-.02-18.64.43-27.95.08 2.06.25 4.13.41 6.2m.15 9.85c-.1.74-.29 2.23-.39 2.98 4.48-2.24 8.84-4.77 13.06-7.46 1.38-.61.7-2.31.86-3.43-4.67 2.33-9.35 4.77-13.53 7.91m0 8.08c-.06.72-.19 2.17-.25 2.9 3.34-1.74 6.67-3.52 9.85-5.54 1.69-.63 1.75-2.42 1.62-3.96-3.88 1.93-7.83 3.86-11.22 6.6m-9.79 14.02c-2.77 1.78-6.78 2.94-7.22 6.74 2.38-.76 4.65-1.83 6.75-3.2 7.88-4.87 16.05-9.23 23.86-14.2.02-.64.05-1.93.07-2.57-8.17 3.75-15.58 8.93-23.46 13.23zM402.02 101.09c8.75-4.86 17.16-10.31 26-15 .55 3.91-3.59 5.09-6.21 6.77-7.39 4.07-14.32 9-22.04 12.44-.44-1.92.55-3.44 2.25-4.21zM425.69 95.74c1.87-1.23 3.95-2.06 6.05-2.81l-.24 2.49c-4.97 3.5-10.4 6.27-15.58 9.43-5.41 3.02-10.56 6.49-16.14 9.21-.2-1.73.27-3.46 1.98-4.2 7.94-4.76 16.02-9.29 23.93-14.12zM404.98 117c5.03-2.79 9.89-5.87 14.88-8.73.11.7.33 2.12.44 2.83-6.62 4.4-13.58 8.29-20.58 12.04-.7-3.51 2.86-4.68 5.26-6.14zM310.7 135.77c2.27 1.13 4.37 2.56 6.32 4.2 8.79 6.87 17.68 13.61 26.49 20.47 2.32 1.97 5.12 4.25 5.19 7.57-.22 3.29-3.15 5.47-5.66 7.16-8.26 4.85-16.57 9.62-24.95 14.24-.06-11.47.09-22.95-.03-34.42-.06-7.11-4.19-13.16-7.36-19.22zM470.26 198.42c2.66-1.25 5.11 1.18 7.47 2.1-4.3 2.61-9.1 4.23-13.48 6.67-2.81 1.45-4.91 4.89-3.43 7.99 3 6.45-1.49 14.54-7.9 16.74-2.47.78-4.22-1.26-4.87-3.37 5.46-3.25 9.88-10.22 6.98-16.55-1.61-3.2.63-7.01 3.68-8.34 3.78-1.89 7.6-3.74 11.55-5.24zM479.05 215.1c1.84-1.18 3.62-2.89 5.95-2.89 1.99.29 3.71 1.45 5.53 2.25-4.08 2.35-6.7 7.25-11.69 7.82.05-2.4.09-4.79.21-7.18zM430.02 220.89c3.85-2.79 7.75-5.53 11.92-7.84 2.12 1.12 4.2 2.32 6.3 3.48-5.82 4.25-13.43 7.14-16.94 13.78-.71 6.65 2.04 13.49.13 20.09-1.71 4.62-7.93 2.81-10.77 6.22-3.88 3.45-5.19 8.73-4.74 13.76-2.19-1.36-5.56-2.23-5.84-5.26-.58-5.21 2.38-10.5 6.69-13.31 3.33-1.42 8.11-1.68 9.29-5.83.88-6.32-.93-12.64-.69-18.98.33-2.71 2.63-4.55 4.65-6.11zM100.23 254.27c2.49-1.43 5.52-3.14 8.43-1.84 3.46 1.59 6.59 3.79 9.89 5.67-7.32 2.04-13.32 6.93-19.95 10.43-7.36 4.54-16.27 7.92-20.33 16.16-3.72-2.39-7.51-4.68-11.34-6.89 2.29-3.56 4.97-7.01 8.72-9.13 8.17-4.84 16.42-9.54 24.58-14.4zM458.21 256.72c1.61.46 4.05.18 4.56 2.27.86 3.44-.3 6.94-.94 10.32-1.65-1.1-3.37-2.07-4.93-3.27-1.23-1.89.2-4.18.48-6.14.27-1.07.55-2.13.83-3.18zM425.98 268.71c1.63-1.75 3.35-4.05 6.05-3 .23 6.46-.59 12.88-1.06 19.31-1.9-1.05-3.89-1.97-5.55-3.37-.25-4.32.64-8.62.56-12.94zM124.3 281.22c.06-2.28.14-4.56.19-6.83 2.27 1.22 4.49 2.52 6.62 3.97-.24.11-.74.33-.98.44-1.93.85-3.88 1.64-5.83 2.42zM95.05 285.93c2.16-1.55 4.38-3.03 6.79-4.2 3.64 2.4 7.49 4.45 11.29 6.57-2.18 1.27-4.36 2.55-6.5 3.88-3.03-2.22-6.55-3.56-9.82-5.36-.44-.22-1.32-.66-1.76-.89zM86.4 299.48c1.8-.7 3.47-2.42 5.48-2.25 3.81 1.6 7.05 4.29 10.87 5.89-5.07 3.41-10.3 6.6-15.87 9.12-.91-4.21-.65-8.49-.48-12.76zM210.4 315.36c10.31-5.96 20.54-12.11 31.16-17.53-.06 1.33-.09 2.67-.08 4.01-10.47 5.66-20.46 12.23-31.2 17.35l.12-3.83zM243.76 318.2c.4 1.27.85 2.53 1.35 3.77-11.51 6.66-22.98 13.4-34.67 19.73.18-1.66-.65-4.02 1.37-4.84 10.52-6.43 21.64-11.88 31.95-18.66zM256.17 335.11c1.3.75 2.63 1.46 3.95 2.2-12.63 6.82-24.87 14.34-37.49 21.18-.14-1.32-.29-2.64-.45-3.95 11.35-6.44 22.72-12.85 33.99-19.43zM95.93 394.33c3.9-2.68 8.04-4.96 12.12-7.35 3.84 2.19 7.63 4.44 11.4 6.74-3.74 2.71-7.77 4.95-11.62 7.48-4.09-2.07-8.03-4.42-11.9-6.87zM94.28 406.2c.42.07 1.25.21 1.67.29 3.59 1.99 7.07 4.17 10.52 6.41-3.93 2.59-7.99 4.97-12.16 7.15-3.96-2.21-7.92-4.43-11.8-6.78 3.78-2.58 7.67-5.05 11.77-7.07zM68.97 432.02c4.05-2.36 7.94-5.04 12.17-7.07.39.11 1.17.35 1.56.46 3.63 1.99 7.08 4.28 10.62 6.42-4.05 2.48-8.18 4.81-12.35 7.06-3.6-2.31-7.32-4.44-11.14-6.36-.06 3.97-1 8.21.44 12.02 2.98 2.45 6.54 4.04 9.76 6.14-4.05 2.42-8.18 4.69-12.28 7.03-3.99-2.25-7.93-4.58-11.79-7.04 4.27-2.56 8.42-5.38 13.05-7.27.22-3.8.2-7.6-.04-11.39z"/></g><g fill="#e3e1ff"><path d="M437.24 70.48l.62-.37c2.18 3.11 1.52 7.06 1.61 10.63v.35c-.45 9.31.27 18.65-.43 27.95-.06 2.95-2.7 4.65-5 5.91-6.24 3.37-12.54 6.63-18.45 10.55-1.9 1.35-4.01 2.56-5.39 4.49-.33 1.67-.34 3.38-.33 5.08-.33-1.39-.67-2.77-1.02-4.15-4.45 3.55-8.11 8.05-10.8 13.06-.84 1.65-2 3.1-3.37 4.33-.05-3.6.11-7.2.35-10.79-1.3-1.3-3.52-2.24-3.1-4.45.15-11.41-.46-22.86.4-34.26 1.11-1.98 2.68-3.68 4.68-4.79 13.46-7.76 26.85-15.64 40.23-23.54m-35.22 30.61c-1.7.77-2.69 2.29-2.25 4.21 7.72-3.44 14.65-8.37 22.04-12.44 2.62-1.68 6.76-2.86 6.21-6.77-8.84 4.69-17.25 10.14-26 15m23.67-5.35c-7.91 4.83-15.99 9.36-23.93 14.12-1.71.74-2.18 2.47-1.98 4.2 5.58-2.72 10.73-6.19 16.14-9.21 5.18-3.16 10.61-5.93 15.58-9.43l.24-2.49c-2.1.75-4.18 1.58-6.05 2.81M404.98 117c-2.4 1.46-5.96 2.63-5.26 6.14 7-3.75 13.96-7.64 20.58-12.04-.11-.71-.33-2.13-.44-2.83-4.99 2.86-9.85 5.94-14.88 8.73zM265.67 139.63c5.53-3.35 11.61-6.56 18.28-6.2 10.74.3 20.09 9.86 20.42 20.55.25 9.22-.02 18.45.08 27.67 4.5 2.67 9.06 5.23 13.64 7.76 8.38-4.62 16.69-9.39 24.95-14.24.02 12.03.31 24.06-.15 36.08-6.41-3.31-12.28-8.47-19.75-9.05-7.94-.85-15.88 1.3-23.03 4.62-1.14-17.26-.16-34.59-.5-51.88-4.45 1.95-8.6 4.48-12.77 6.94-17.43 9.87-34.77 19.9-52.19 29.77-2.42 1.46-5.26 2.49-7.14 4.68-.48 3.2-.19 6.45-.21 9.67.07 23.95 0 47.9.02 71.85 2.35-1.24 4.74-2.41 7.01-3.8 4.89-2.95 9.89-5.72 14.87-8.52-4.16 10.29-7 21.19-7.64 32.3-10.62 5.42-20.85 11.57-31.16 17.53l-.12 3.83c10.74-5.12 20.73-11.69 31.2-17.35.03 5.52.64 11.07 2.28 16.36-10.31 6.78-21.43 12.23-31.95 18.66-2.02.82-1.19 3.18-1.37 4.84 11.69-6.33 23.16-13.07 34.67-19.73 2.3 5.32 5.73 10.48 11.06 13.14-11.27 6.58-22.64 12.99-33.99 19.43.16 1.31.31 2.63.45 3.95 12.62-6.84 24.86-14.36 37.49-21.18 2.64 1.51 5.29 2.98 7.92 4.51 4.48 2.69 8.56 6.3 13.79 7.47 10.28 2.66 21.07-.47 30.19-5.35 9.72-5.2 18.09-12.58 25.45-20.73 1.17.73 2.35 1.47 3.53 2.19-2.39 2.95-4.85 5.85-7.43 8.64 3.51 4.79 7.91 9.64 8.08 15.92.81 8.11-4.21 15.47-10.08 20.55-15.21 11.93-34.49 17.02-53.31 19.65-14.65 2.46-29.54 1.27-44.3 1.42-2.5.03-4.61 1.51-6.73 2.65-11.6 6.79-23.4 13.22-34.98 20.04-1.4.9-3.03 1.31-4.62 1.74l-.3-.82c-1.11-2.94-1.76-6.06-1.68-9.21.25-68.66.01-137.32.16-205.97-.42-8.59 4.3-17.18 11.73-21.48 22.71-12.96 45.45-25.89 68.13-38.9m49.24 204.48c-21.69 12.62-43.56 24.92-65.32 37.43-4.24 2.5-8.76 4.56-12.61 7.69 2.77 1.56 6.01 1.12 9.04 1.15 5.6-.14 11.24.4 16.8-.56 21.15-1.49 42.94-5.33 61.28-16.54 6.99-4.78 14.78-11.08 15.47-20.19.77-6.99-3.37-13.48-8.5-17.84-5.52 2.71-10.78 5.9-16.16 8.86zM477.73 200.52c.77.82 2.15 1.24 2.34 2.49.3 4.06-.75 8.06-1.02 12.09-.12 2.39-.16 4.78-.21 7.18 4.99-.57 7.61-5.47 11.69-7.82 1.76 1.17 3.92 2.32 4.31 4.62.77 4.25-1.48 8.46-4.2 11.57-3.11 3.8-9.98 2.13-11.65 7.43-1.39 6.63 1.73 13.26.96 19.89-1.98 3.88-6.07 5.97-9.36 8.6-2.53 1.75-5.52 4.71-8.76 2.74.64-3.38 1.8-6.88.94-10.32-.51-2.09-2.95-1.81-4.56-2.27-.28 1.05-.56 2.11-.83 3.18-.23-.49-.68-1.48-.91-1.98-3.88 1.82-5.95 6.09-6.83 10.09-.54 2.8 1.36 5.53.75 8.32-1.09 3.49-4.73 4.88-7.76 6.24-3.75 1.6-7.47 3.89-11.72 3.27l.06-.82c.47-6.43 1.29-12.85 1.06-19.31-2.7-1.05-4.42 1.25-6.05 3-2.34 3.26-6.52 3.88-10.06 2.4v-.73c-.45-5.03.86-10.31 4.74-13.76 2.84-3.41 9.06-1.6 10.77-6.22 1.91-6.6-.84-13.44-.13-20.09 3.51-6.64 11.12-9.53 16.94-13.78l.55-.35c2.77 4-1.24 8.13-.74 12.37.65 2.11 2.4 4.15 4.87 3.37 6.41-2.2 10.9-10.29 7.9-16.74-1.48-3.1.62-6.54 3.43-7.99 4.38-2.44 9.18-4.06 13.48-6.67zM118.55 258.1c2.23.29 3.93 2.54 4.9 4.48 1.24 3.79.98 7.87 1.04 11.81-.05 2.27-.13 4.55-.19 6.83 1.95-.78 3.9-1.57 5.83-2.42-.48 2.13-1.02 4.26-2 6.23-3.3 7.08-6 14.43-9.41 21.46-.31-.37-.93-1.12-1.24-1.49-3.41-4.45-7.06-8.7-10.85-12.82 2.14-1.33 4.32-2.61 6.5-3.88.36-4.92.32-9.85-.04-14.77-3.98 1.47-7.62 3.63-11.14 5.97-4.63 2.9-9.76 5.02-14.07 8.4-2.88 3.12-1.18 7.77-1.48 11.58-.17 4.27-.43 8.55.48 12.76 5.57-2.52 10.8-5.71 15.87-9.12 2.85 2.01 1.9 5.9 1.85 8.88-.22 3.93-4.21 5.69-7.18 7.37-4.15 2.14-7.88 5-12.12 6.93-3.05 1.31-7.34.76-9.46-1.84-1.12-8.44-.46-16.97-.68-25.46-.18-4.95.81-9.9 3.11-14.31 4.06-8.24 12.97-11.62 20.33-16.16 6.63-3.5 12.63-8.39 19.95-10.43zM119.45 393.72l.43-.3c.28 12.85-.04 25.7.23 38.54-.12 2.82.27 5.8-.62 8.52-3.56 2.58-7.53 4.55-11.44 6.54-.31-15.27.09-30.55-.22-45.82 3.85-2.53 7.88-4.77 11.62-7.48zM94.31 420.05c4.17-2.18 8.23-4.56 12.16-7.15.53 11.38.06 22.79.25 34.18l-.04.63c-2.87 2.58-6.45 4.17-9.74 6.15-5.38 2.86-10.25 6.61-15.85 9.05-.18-8-.02-16.01-.12-24.02 4.17-2.25 8.3-4.58 12.35-7.06.14 7.64-.34 15.3.29 22.93.44-2.23.91-4.48.82-6.76-.16-9.32 0-18.64-.12-27.95zM67.75 457.72c4.1-2.34 8.23-4.61 12.28-7.03-.08 4.04.11 8.09-.05 12.13l-.2.9c-3.61 2.96-7.92 4.9-11.91 7.29-.06-4.43-.1-8.86-.12-13.29z"/></g><g fill="#9c97e8"><path d="M439.47 80.74c4.54-2.51 8.92-5.31 13.51-7.75 2.05 1.2 4.14 2.36 6.31 3.35-6.66 3.32-12.79 7.56-19.41 10.95-.16-2.07-.33-4.14-.41-6.2v-.35zM385.7 93.56c2.33 1.5 5.69 2.32 6.63 5.25-.86 11.4-.25 22.85-.4 34.26-.42 2.21 1.8 3.15 3.1 4.45-.24 3.59-.4 7.19-.35 10.79 0 .48-.01 1.44-.01 1.92-2.43-1.45-5.21-2.46-7.19-4.52-.4-3.53.1-7.07.5-10.57-.99-.72-1.98-1.42-2.96-2.13-.06-11.33.02-22.65-.06-33.97-.03-1.86.36-3.67.74-5.48zM430.24 119.24c7.88-4.3 15.29-9.48 23.46-13.23-.02.64-.05 1.93-.07 2.57-7.81 4.97-15.98 9.33-23.86 14.2-2.1 1.37-4.37 2.44-6.75 3.2.44-3.8 4.45-4.96 7.22-6.74zM263.37 126.39c6.35-3.48 13.24-7.4 20.77-6.22 10.46 1.6 19.41 8.12 26.56 15.6 3.17 6.06 7.3 12.11 7.36 19.22.12 11.47-.03 22.95.03 34.42-4.58-2.53-9.14-5.09-13.64-7.76-.1-9.22.17-18.45-.08-27.67-.33-10.69-9.68-20.25-20.42-20.55-6.67-.36-12.75 2.85-18.28 6.2-22.68 13.01-45.42 25.94-68.13 38.9-7.43 4.3-12.15 12.89-11.73 21.48-.15 68.65.09 137.31-.16 205.97-.08 3.15.57 6.27 1.68 9.21-3.8-2.47-7.96-4.33-11.67-6.93-2.3-1.64-2.65-4.69-2.66-7.29-.03-9.26.03-18.53-.02-27.8.01-.73.01-2.2.01-2.93.02-12.49.02-24.97 0-37.46v-2.8c.02-46.33-.03-92.66.08-138.99.12-8.09 4.93-15.95 11.97-19.9 26.12-14.89 52.21-29.82 78.33-44.7zM410.2 129.99c1.38-1.93 3.49-3.14 5.39-4.49.5 4.63.57 9.29.29 13.93-1.95-1.49-4.7-2.25-6.01-4.36-.01-1.7 0-3.41.33-5.08zM101.95 279.5c3.52-2.34 7.16-4.5 11.14-5.97.36 4.92.4 9.85.04 14.77-3.8-2.12-7.65-4.17-11.29-6.57.02-.55.08-1.67.11-2.23zM66.93 277.8c3.83 2.21 7.62 4.5 11.34 6.89-2.3 4.41-3.29 9.36-3.11 14.31.22 8.49-.44 17.02.68 25.46-3.17-1.91-6.54-3.52-9.55-5.71-2.32-1.84-2.29-5.08-2.32-7.76.08-7.69-.12-15.37.07-23.05-.04-3.6 1.44-6.93 2.89-10.14zM96.81 286.82c3.27 1.8 6.79 3.14 9.82 5.36 3.79 4.12 7.44 8.37 10.85 12.82-4.51-2.47-9.56-4.53-12.76-8.73-2.59-3.19-5.51-6.11-7.91-9.45zM95.93 394.33c3.87 2.45 7.81 4.8 11.9 6.87.31 15.27-.09 30.55.22 45.82l-1.33.06c-.19-11.39.28-22.8-.25-34.18-3.45-2.24-6.93-4.42-10.52-6.41.08-4.06.08-8.11-.02-12.16zM82.51 413.27c3.88 2.35 7.84 4.57 11.8 6.78.12 9.31-.04 18.63.12 27.95.09 2.28-.38 4.53-.82 6.76-.63-7.63-.15-15.29-.29-22.93-3.54-2.14-6.99-4.43-10.62-6.42.01-4.05-.01-8.1-.19-12.14zM69.83 432.53c3.82 1.92 7.54 4.05 11.14 6.36.1 8.01-.06 16.02.12 24.02l-1.11-.09c.16-4.04-.03-8.09.05-12.13-3.22-2.1-6.78-3.69-9.76-6.14-1.44-3.81-.5-8.05-.44-12.02zM55.96 450.68c3.86 2.46 7.8 4.79 11.79 7.04.02 4.43.06 8.86.12 13.29-3.96-2.34-7.93-4.65-11.87-7.02-.01-4.44.02-8.88-.04-13.31z"/></g><path fill="#a19cea" d="M440.03 97.14c4.18-3.14 8.86-5.58 13.53-7.91-.16 1.12.52 2.82-.86 3.43-4.22 2.69-8.58 5.22-13.06 7.46.1-.75.29-2.24.39-2.98z"/><path fill="#a09bea" d="M440.03 105.22c3.39-2.74 7.34-4.67 11.22-6.6.13 1.54.07 3.33-1.62 3.96-3.18 2.02-6.51 3.8-9.85 5.54.06-.73.19-2.18.25-2.9z"/><path fill="#ffe0a6" d="M267.22 185.31c3.19-1.13 7.18-.66 9.51 1.96 2.54 2.86 2.99 6.95 2.68 10.61-.86 8.7-5.5 16.78-11.98 22.53-3.64 3.06-8.49 5.76-13.38 4.43-3.45-.92-5.5-4.4-5.99-7.74-1.03-6.99 1.47-14.02 5.19-19.86 3.37-5.17 7.96-9.98 13.97-11.93z"/><path fill="#402cb5" d="M300.11 206.82c7.15-3.32 15.09-5.47 23.03-4.62 7.47.58 13.34 5.74 19.75 9.05.37.22 1.09.67 1.45.89-12.54-1.47-24.98 3.03-35.26 9.96-7.2 4.97-14.08 10.58-19.42 17.56-14.13 15.56-24 34.93-28.51 55.44-2.12 10.97-2.76 22.54.38 33.38 1.46 4.76 4.15 9 6.51 13.34-2.63-1.53-5.28-3-7.92-4.51-1.32-.74-2.65-1.45-3.95-2.2-5.33-2.66-8.76-7.82-11.06-13.14-.5-1.24-.95-2.5-1.35-3.77-1.64-5.29-2.25-10.84-2.28-16.36-.01-1.34.02-2.68.08-4.01.64-11.11 3.48-22.01 7.64-32.3 6.69-16.33 16.66-31.36 29.39-43.61 6.45-5.96 13.58-11.28 21.52-15.1z"/><path fill="#5840e2" d="M309.08 222.1c10.28-6.93 22.72-11.43 35.26-9.96 4.84 2.48 10.1 4.59 13.75 8.79 6.94 7.5 9.34 18.05 9.57 28.01.32 10.89-2.15 21.61-5.33 31.96 14.11 7.18 27.56 15.62 41.43 23.27 3.77 1.73 5.88 5.73 6.15 9.75.71 8.67-2.93 17.15-8.06 23.96-3.55 4.52-8.08 8.6-13.67 10.33-3.04.97-6.46.7-9.16-1.05-12.66-7.27-25.39-14.43-38.02-21.76-1.18-.72-2.36-1.46-3.53-2.19-7.36 8.15-15.73 15.53-25.45 20.73-9.12 4.88-19.91 8.01-30.19 5.35-5.23-1.17-9.31-4.78-13.79-7.47-2.36-4.34-5.05-8.58-6.51-13.34-3.14-10.84-2.5-22.41-.38-33.38 4.51-20.51 14.38-39.88 28.51-55.44 5.34-6.98 12.22-12.59 19.42-17.56m3.92 16.99c-12.56 7.62-22.11 19.54-28.57 32.6l-.23.04c-.98 2.1-1.74 4.29-2.46 6.49l-.37.16c-2.69 6.74-4.31 13.85-5.07 21.06-.02 1.51-.05 3.02-.07 4.54.28 5.13 1.3 10.22 3.53 14.86 2.81 4.52 6.92 8.53 12.29 9.64 10.08 2.22 20.03-2.72 27.87-8.65 13.59-10.62 23.36-25.82 28.4-42.24 3.08-10.97 4.57-23.55-.94-34.02-3.34-6.52-10.59-10.1-17.75-10.06-5.9.53-11.59 2.49-16.63 5.58z"/><path fill="#2192fc" d="M252.2 235.2c6.87-7.26 16.01-13.46 26.39-13.28-12.73 12.25-22.7 27.28-29.39 43.61-4.98 2.8-9.98 5.57-14.87 8.52 1.17-14.53 8.01-28.26 17.87-38.85z"/><g fill="#a1c8ff"><path d="M313 239.09c5.04-3.09 10.73-5.05 16.63-5.58 5.92 14.16 2.75 30.22-3.29 43.78-7.14 15.68-18.49 30.24-34.26 37.89-3.82 2.05-8.08 2.96-12.32 3.66-2.23-4.64-3.25-9.73-3.53-14.86 2.2-1.06 4.39-2.12 6.59-3.17.39 2.61 1.6 4.98 2.8 7.3 2.48-4.87 4.52-9.98 7.57-14.52 2.31-.6 4.61-1.37 6.63-2.68 6.27-3.87 12.84-7.22 19.07-11.17-.28-1.2-.55-2.38-.82-3.57-6.16 3.23-11.91 7.21-18.35 9.88 3.06-4.69 7.46-8.13 11.72-11.64 3.52-2.65 2.39-7.57 2.08-11.34-1.08-5.75.66-11.51.24-17.29-9.59 5.77-16.72 14.83-22.45 24.28-2.24.76-4.55 1.24-6.88 1.63 6.46-13.06 16.01-24.98 28.57-32.6m.82 21.1c2.78-.93 5.56-2.93 4.26-6.26-2.81.94-5.1 3.01-4.26 6.26z"/><path d="M281.74 278.22c2.19-.95 4.38-1.9 6.55-2.89-3.34 6.65-5.58 13.95-5.39 21.46-2.2.88-4.4 1.77-6.6 2.65.76-7.21 2.38-14.32 5.07-21.06l.37-.16z"/></g><path fill="#3da3ff" d="M329.63 233.51c7.16-.04 14.41 3.54 17.75 10.06 5.51 10.47 4.02 23.05.94 34.02-5.04 16.42-14.81 31.62-28.4 42.24-7.84 5.93-17.79 10.87-27.87 8.65-5.37-1.11-9.48-5.12-12.29-9.64 4.24-.7 8.5-1.61 12.32-3.66 15.77-7.65 27.12-22.21 34.26-37.89 6.04-13.56 9.21-29.62 3.29-43.78z"/><path fill="#b4d9ff" d="M291.31 270.06c5.73-9.45 12.86-18.51 22.45-24.28.42 5.78-1.32 11.54-.24 17.29.31 3.77 1.44 8.69-2.08 11.34-4.26 3.51-8.66 6.95-11.72 11.64-2.4 2.31-4.71 4.73-6.53 7.54-3.05 4.54-5.09 9.65-7.57 14.52-1.2-2.32-2.41-4.69-2.8-7.3 0-1.35.03-2.68.08-4.02-.19-7.51 2.05-14.81 5.39-21.46.93-1.8 1.97-3.54 3.02-5.27z"/><path fill="#8eb1fc" d="M313.82 260.19c-.84-3.25 1.45-5.32 4.26-6.26 1.3 3.33-1.48 5.33-4.26 6.26z"/><g fill="#8db0fc"><path d="M284.43 271.69c2.33-.39 4.64-.87 6.88-1.63-1.05 1.73-2.09 3.47-3.02 5.27-2.17.99-4.36 1.94-6.55 2.89.72-2.2 1.48-4.39 2.46-6.49l.23-.04zM299.72 286.05c6.44-2.67 12.19-6.65 18.35-9.88.27 1.19.54 2.37.82 3.57-6.23 3.95-12.8 7.3-19.07 11.17-2.02 1.31-4.32 2.08-6.63 2.68 1.82-2.81 4.13-5.23 6.53-7.54zM276.3 299.44c2.2-.88 4.4-1.77 6.6-2.65-.05 1.34-.08 2.67-.08 4.02-2.2 1.05-4.39 2.11-6.59 3.17.02-1.52.05-3.03.07-4.54z"/></g><path fill="#f0eeff" d="M159.45 355.62c-2.42-10.47 5.09-20.38 13.54-25.64v2.8c-6.13 4.93-12.15 11.89-11.37 20.3.48 7.37 6.06 12.72 11.37 17.16 0 .73 0 2.2-.01 2.93-6.48-3.84-11.71-10.17-13.53-17.55z"/></svg>